<svg xmlns="http://www.w3.org/2000/svg" viewBox="0 0 13 15" width="13" height="15">
	<style>
		tspan { white-space:pre }
		.shp0 { fill: #e8c300 } 
		.shp1 { opacity: 0.502;fill: #333333 } 
	</style>
	<path id="Layer" fill-rule="evenodd" class="shp0" d="M0 6C0 3.1 2.32 0.75 5.25 0.75C8.15 0.75 10.5 3.1 10.5 6C10.5 8.13 9.76 8.73 5.77 14.48C5.52 14.86 4.95 14.86 4.7 14.48C0.71 8.73 0 8.13 0 6ZM7.44 6C7.44 4.8 6.45 3.81 5.25 3.81C4.02 3.81 3.06 4.8 3.06 6C3.06 7.23 4.02 8.19 5.25 8.19C6.45 8.19 7.44 7.23 7.44 6ZM212.39 2.06C212.39 9.09 206.7 14.75 199.7 14.75C199.37 14.75 199.13 14.56 199.04 14.26L198.39 11.41C198.33 11.11 198.47 10.79 198.77 10.65L201.83 9.34C202.1 9.23 202.41 9.31 202.6 9.53L203.97 11.2C206.1 10.18 207.82 8.43 208.81 6.36L207.14 4.99C206.92 4.8 206.84 4.5 206.94 4.22L208.26 1.16C208.4 0.86 208.72 0.7 209.02 0.78L211.87 1.43C212.17 1.52 212.39 1.76 212.39 2.06ZM473.89 6.11L473.89 11.69C473.89 12.43 473.29 13 472.58 13L461.2 13C460.46 13 459.89 12.43 459.89 11.69L459.89 6.11C459.89 5.97 460.03 5.89 460.14 5.97C460.77 6.46 461.56 7.07 464.35 9.09C464.92 9.5 465.91 10.4 466.89 10.4C467.85 10.4 468.86 9.5 469.41 9.09C472.19 7.07 472.99 6.46 473.62 5.97C473.73 5.89 473.89 5.97 473.89 6.11ZM464.87 8.38C461.23 5.75 460.96 5.51 460.14 4.85C459.97 4.74 459.89 4.55 459.89 4.33L459.89 3.81C459.89 3.1 460.46 2.5 461.2 2.5L472.58 2.5C473.29 2.5 473.89 3.1 473.89 3.81L473.89 4.33C473.89 4.55 473.78 4.74 473.62 4.85C472.8 5.51 472.52 5.75 468.89 8.38C468.42 8.71 467.52 9.53 466.89 9.5C466.23 9.53 465.33 8.71 464.87 8.38Z" />
	<path id="Layer" fill-rule="evenodd" class="shp1" d="M23.45 7.53C24.28 7.53 24.94 7.76 25.42 8.22C25.92 8.69 26.16 9.33 26.16 10.13C26.16 11.09 25.87 11.83 25.28 12.34C24.69 12.86 23.84 13.12 22.75 13.12C21.79 13.12 21.02 12.96 20.44 12.65L20.44 11.09C20.75 11.25 21.11 11.39 21.52 11.49C21.93 11.6 22.31 11.65 22.68 11.65C23.79 11.65 24.34 11.19 24.34 10.29C24.34 9.42 23.77 8.99 22.62 8.99C22.42 8.99 22.19 9.01 21.94 9.06C21.69 9.1 21.48 9.14 21.33 9.19L20.61 8.8L20.93 4.43L25.58 4.43L25.58 5.97L22.52 5.97L22.36 7.65L22.56 7.61C22.8 7.55 23.1 7.53 23.45 7.53ZM30.4 11.69C30.72 11.69 31.09 11.63 31.53 11.49L31.53 12.82C31.08 13.02 30.54 13.12 29.89 13.12C29.17 13.12 28.65 12.94 28.32 12.58C28 12.21 27.84 11.67 27.84 10.95L27.84 7.79L26.98 7.79L26.98 7.04L27.97 6.44L28.48 5.05L29.63 5.05L29.63 6.45L31.46 6.45L31.46 7.79L29.63 7.79L29.63 10.95C29.63 11.2 29.7 11.39 29.84 11.51C29.98 11.63 30.17 11.69 30.4 11.69ZM38.91 13L37.12 13L37.12 9.17C37.12 8.23 36.77 7.76 36.06 7.76C35.56 7.76 35.2 7.93 34.98 8.27C34.76 8.61 34.65 9.16 34.65 9.92L34.65 13L32.86 13L32.86 3.88L34.65 3.88L34.65 5.74C34.65 5.88 34.63 6.22 34.61 6.76L34.56 7.29L34.66 7.29C35.06 6.65 35.69 6.33 36.56 6.33C37.33 6.33 37.91 6.53 38.31 6.95C38.71 7.36 38.91 7.96 38.91 8.73L38.91 13ZM44 13L44 4.43L45.82 4.43L45.82 11.5L49.29 11.5L49.29 13L44 13ZM56.6 9.71C56.6 10.78 56.32 11.61 55.76 12.21C55.2 12.82 54.41 13.12 53.41 13.12C52.78 13.12 52.22 12.98 51.74 12.71C51.26 12.43 50.89 12.03 50.64 11.52C50.38 11 50.25 10.4 50.25 9.71C50.25 8.64 50.53 7.81 51.09 7.22C51.65 6.62 52.43 6.33 53.44 6.33C54.07 6.33 54.63 6.46 55.11 6.74C55.59 7.01 55.96 7.4 56.21 7.91C56.47 8.43 56.6 9.03 56.6 9.71ZM52.07 9.71C52.07 10.36 52.18 10.85 52.39 11.18C52.6 11.52 52.95 11.68 53.43 11.68C53.91 11.68 54.25 11.52 54.46 11.19C54.67 10.86 54.77 10.37 54.77 9.71C54.77 9.06 54.67 8.58 54.46 8.25C54.25 7.93 53.9 7.77 53.42 7.77C52.94 7.77 52.6 7.93 52.39 8.25C52.18 8.57 52.07 9.06 52.07 9.71ZM64.13 13L62.34 13L62.34 9.17C62.34 8.7 62.25 8.35 62.09 8.11C61.92 7.88 61.65 7.76 61.28 7.76C60.78 7.76 60.42 7.92 60.2 8.26C59.98 8.59 59.87 9.14 59.87 9.92L59.87 13L58.08 13L58.08 6.45L59.44 6.45L59.68 7.29L59.78 7.29C59.98 6.97 60.26 6.73 60.6 6.57C60.96 6.41 61.35 6.33 61.8 6.33C62.56 6.33 63.14 6.53 63.53 6.95C63.93 7.36 64.13 7.95 64.13 8.73L64.13 13ZM68.04 13.12C67.27 13.12 66.66 12.82 66.22 12.22C65.79 11.62 65.57 10.79 65.57 9.74C65.57 8.66 65.79 7.83 66.23 7.23C66.68 6.63 67.3 6.33 68.09 6.33C68.91 6.33 69.54 6.65 69.97 7.29L70.03 7.29C69.94 6.8 69.9 6.36 69.9 5.98L69.9 3.88L71.69 3.88L71.69 13L70.32 13L69.97 12.15L69.9 12.15C69.49 12.79 68.87 13.12 68.04 13.12ZM68.67 11.69C69.12 11.69 69.46 11.56 69.67 11.29C69.88 11.03 70 10.58 70.02 9.94L70.02 9.75C70.02 9.04 69.91 8.54 69.69 8.24C69.48 7.93 69.13 7.78 68.64 7.78C68.24 7.78 67.93 7.95 67.71 8.29C67.49 8.63 67.38 9.12 67.38 9.76C67.38 10.4 67.49 10.89 67.71 11.21C67.93 11.53 68.25 11.69 68.67 11.69ZM79.51 9.71C79.51 10.78 79.23 11.61 78.67 12.21C78.11 12.82 77.32 13.12 76.32 13.12C75.69 13.12 75.13 12.98 74.65 12.71C74.17 12.43 73.8 12.03 73.55 11.52C73.29 11 73.16 10.4 73.16 9.71C73.16 8.64 73.44 7.81 74 7.22C74.56 6.62 75.34 6.33 76.35 6.33C76.98 6.33 77.54 6.46 78.02 6.74C78.5 7.01 78.87 7.4 79.13 7.91C79.38 8.43 79.51 9.03 79.51 9.71ZM74.98 9.71C74.98 10.36 75.09 10.85 75.3 11.18C75.51 11.52 75.86 11.68 76.34 11.68C76.82 11.68 77.16 11.52 77.37 11.19C77.58 10.86 77.68 10.37 77.68 9.71C77.68 9.06 77.58 8.58 77.37 8.25C77.16 7.93 76.81 7.77 76.33 7.77C75.85 7.77 75.51 7.93 75.3 8.25C75.09 8.57 74.98 9.06 74.98 9.71ZM87.04 13L85.25 13L85.25 9.17C85.25 8.7 85.16 8.35 85 8.11C84.83 7.88 84.56 7.76 84.19 7.76C83.69 7.76 83.33 7.92 83.11 8.26C82.89 8.59 82.78 9.14 82.78 9.92L82.78 13L80.99 13L80.99 6.45L82.35 6.45L82.59 7.29L82.69 7.29C82.89 6.97 83.17 6.73 83.51 6.57C83.87 6.41 84.26 6.33 84.71 6.33C85.47 6.33 86.05 6.53 86.44 6.95C86.84 7.36 87.04 7.95 87.04 8.73L87.04 13ZM92.13 4.43L94.8 4.43C96.01 4.43 96.89 4.61 97.44 4.96C97.99 5.3 98.27 5.85 98.27 6.6C98.27 7.11 98.15 7.53 97.9 7.86C97.67 8.19 97.35 8.39 96.95 8.45L96.95 8.51C97.49 8.63 97.88 8.86 98.12 9.19C98.36 9.52 98.48 9.96 98.48 10.52C98.48 11.3 98.2 11.91 97.63 12.34C97.07 12.78 96.31 13 95.34 13L92.13 13L92.13 4.43ZM93.95 7.83L95 7.83C95.5 7.83 95.85 7.75 96.07 7.6C96.29 7.45 96.4 7.19 96.4 6.84C96.4 6.51 96.28 6.28 96.04 6.14C95.8 5.99 95.42 5.92 94.9 5.92L93.95 5.92L93.95 7.83ZM93.95 9.27L93.95 11.5L95.13 11.5C95.63 11.5 96 11.4 96.24 11.21C96.48 11.02 96.6 10.73 96.6 10.33C96.6 9.62 96.09 9.27 95.07 9.27L93.95 9.27ZM106.01 9.71C106.01 10.78 105.73 11.61 105.16 12.21C104.6 12.82 103.82 13.12 102.81 13.12C102.19 13.12 101.63 12.98 101.15 12.71C100.67 12.43 100.3 12.03 100.04 11.52C99.79 11 99.66 10.4 99.66 9.71C99.66 8.64 99.94 7.81 100.49 7.22C101.05 6.62 101.84 6.33 102.85 6.33C103.48 6.33 104.03 6.46 104.51 6.74C104.99 7.01 105.36 7.4 105.62 7.91C105.88 8.43 106.01 9.03 106.01 9.71ZM101.48 9.71C101.48 10.36 101.58 10.85 101.8 11.18C102.01 11.52 102.36 11.68 102.84 11.68C103.31 11.68 103.66 11.52 103.86 11.19C104.07 10.86 104.18 10.37 104.18 9.71C104.18 9.06 104.07 8.58 103.86 8.25C103.65 7.93 103.31 7.77 102.83 7.77C102.35 7.77 102.01 7.93 101.8 8.25C101.58 8.57 101.48 9.06 101.48 9.71ZM112.13 13L111.89 12.16L111.79 12.16C111.6 12.47 111.33 12.7 110.98 12.87C110.63 13.04 110.22 13.12 109.78 13.12C109.01 13.12 108.43 12.91 108.03 12.5C107.64 12.09 107.45 11.49 107.45 10.72L107.45 6.45L109.24 6.45L109.24 10.28C109.24 10.75 109.32 11.1 109.49 11.34C109.66 11.58 109.92 11.69 110.29 11.69C110.79 11.69 111.15 11.53 111.38 11.2C111.6 10.86 111.71 10.3 111.71 9.53L111.71 6.45L113.5 6.45L113.5 13L112.13 13ZM117.16 13L115.37 13L115.37 3.88L117.16 3.88L117.16 13ZM122 13.12C120.95 13.12 120.13 12.83 119.53 12.24C118.94 11.66 118.64 10.84 118.64 9.77C118.64 8.67 118.91 7.83 119.46 7.23C120.01 6.63 120.77 6.33 121.74 6.33C122.67 6.33 123.39 6.59 123.9 7.12C124.42 7.64 124.68 8.37 124.68 9.3L124.68 10.17L120.45 10.17C120.47 10.68 120.62 11.07 120.9 11.36C121.18 11.64 121.58 11.79 122.09 11.79C122.48 11.79 122.85 11.75 123.2 11.66C123.56 11.58 123.92 11.45 124.31 11.27L124.31 12.65C123.99 12.81 123.66 12.93 123.31 13C122.95 13.08 122.52 13.12 122 13.12ZM121.75 7.6C121.37 7.6 121.08 7.72 120.86 7.96C120.65 8.2 120.52 8.54 120.49 8.98L123 8.98C122.99 8.54 122.88 8.2 122.65 7.96C122.43 7.72 122.13 7.6 121.75 7.6ZM127.69 13L125.19 6.45L127.06 6.45L128.33 10.18C128.47 10.65 128.56 11.1 128.59 11.52L128.63 11.52C128.65 11.15 128.73 10.7 128.89 10.18L130.15 6.45L132.02 6.45L129.52 13L127.69 13ZM137.12 13L136.78 12.11L136.73 12.11C136.43 12.49 136.12 12.75 135.8 12.9C135.48 13.04 135.07 13.12 134.56 13.12C133.93 13.12 133.43 12.94 133.07 12.58C132.71 12.22 132.53 11.71 132.53 11.04C132.53 10.35 132.77 9.84 133.25 9.51C133.74 9.18 134.48 8.99 135.46 8.96L136.59 8.92L136.59 8.63C136.59 7.97 136.25 7.64 135.57 7.64C135.05 7.64 134.44 7.8 133.73 8.11L133.14 6.91C133.89 6.51 134.73 6.31 135.65 6.31C136.52 6.31 137.2 6.51 137.67 6.89C138.13 7.27 138.37 7.85 138.37 8.63L138.37 13L137.12 13ZM136.59 9.96L135.9 9.99C135.38 10 135 10.1 134.74 10.27C134.49 10.44 134.36 10.7 134.36 11.05C134.36 11.56 134.65 11.81 135.23 11.81C135.64 11.81 135.97 11.69 136.22 11.45C136.47 11.21 136.59 10.9 136.59 10.5L136.59 9.96ZM143.87 6.33C144.11 6.33 144.31 6.34 144.47 6.38L144.34 8.05C144.19 8.02 144.02 8 143.81 8C143.24 8 142.8 8.14 142.48 8.44C142.16 8.73 142 9.14 142 9.67L142 13L140.22 13L140.22 6.45L141.57 6.45L141.83 7.55L141.92 7.55C142.12 7.18 142.4 6.89 142.74 6.67C143.09 6.44 143.47 6.33 143.87 6.33ZM147.74 13.12C146.97 13.12 146.36 12.82 145.92 12.22C145.48 11.62 145.27 10.79 145.27 9.74C145.27 8.66 145.49 7.83 145.93 7.23C146.38 6.63 147 6.33 147.78 6.33C148.61 6.33 149.24 6.65 149.67 7.29L149.73 7.29C149.64 6.8 149.6 6.36 149.6 5.98L149.6 3.88L151.39 3.88L151.39 13L150.02 13L149.67 12.15L149.6 12.15C149.19 12.79 148.57 13.12 147.74 13.12ZM148.37 11.69C148.82 11.69 149.16 11.56 149.37 11.29C149.58 11.03 149.7 10.58 149.72 9.94L149.72 9.75C149.72 9.04 149.61 8.54 149.39 8.24C149.18 7.93 148.82 7.78 148.34 7.78C147.94 7.78 147.63 7.95 147.4 8.29C147.19 8.63 147.08 9.12 147.08 9.76C147.08 10.4 147.19 10.89 147.41 11.21C147.63 11.53 147.95 11.69 148.37 11.69ZM155.01 11.74C154.81 12.53 154.46 13.46 153.98 14.55L152.69 14.55C152.94 13.51 153.14 12.53 153.28 11.61L154.92 11.61L155.01 11.74ZM166.97 4.43L166.97 9.98C166.97 10.61 166.83 11.16 166.54 11.64C166.26 12.12 165.85 12.48 165.32 12.74C164.78 12.99 164.15 13.12 163.42 13.12C162.32 13.12 161.46 12.84 160.85 12.27C160.24 11.71 159.94 10.93 159.94 9.95L159.94 4.43L161.75 4.43L161.75 9.68C161.75 10.34 161.88 10.82 162.15 11.13C162.41 11.44 162.85 11.59 163.47 11.59C164.06 11.59 164.49 11.44 164.75 11.13C165.02 10.82 165.16 10.33 165.16 9.67L165.16 4.43L166.97 4.43ZM168.67 12.16C168.67 11.83 168.76 11.59 168.94 11.42C169.11 11.25 169.37 11.17 169.71 11.17C170.03 11.17 170.28 11.25 170.46 11.42C170.63 11.6 170.72 11.84 170.72 12.16C170.72 12.47 170.63 12.71 170.46 12.89C170.28 13.07 170.03 13.16 169.71 13.16C169.38 13.16 169.12 13.07 168.94 12.9C168.76 12.72 168.67 12.48 168.67 12.16ZM179.38 13L177.32 13L175.07 9.39L174.31 9.94L174.31 13L172.49 13L172.49 4.43L174.31 4.43L174.31 8.35L175.02 7.35L177.34 4.43L179.35 4.43L176.37 8.22L179.38 13ZM180.06 12.16C180.06 11.83 180.15 11.59 180.33 11.42C180.5 11.25 180.76 11.17 181.1 11.17C181.42 11.17 181.67 11.25 181.85 11.42C182.03 11.6 182.12 11.84 182.12 12.16C182.12 12.47 182.03 12.71 181.85 12.89C181.67 13.07 181.42 13.16 181.1 13.16C180.77 13.16 180.51 13.07 180.33 12.9C180.15 12.72 180.06 12.48 180.06 12.16ZM258.9 9.41L256.63 9.41L256.63 8.13L258.9 8.13L258.9 5.85L260.18 5.85L260.18 8.13L262.45 8.13L262.45 9.41L260.18 9.41L260.18 11.67L258.9 11.67L258.9 9.41ZM269.63 11.22L268.6 11.22L268.6 13L266.83 13L266.83 11.22L263.17 11.22L263.17 9.96L266.93 4.43L268.6 4.43L268.6 9.82L269.63 9.82L269.63 11.22ZM266.83 9.82L266.83 8.37C266.83 8.12 266.84 7.77 266.86 7.31C266.88 6.85 266.89 6.58 266.91 6.51L266.86 6.51C266.71 6.83 266.54 7.14 266.34 7.45L264.77 9.82L266.83 9.82ZM276.25 8.72C276.25 10.21 276 11.32 275.51 12.04C275.02 12.76 274.27 13.12 273.25 13.12C272.26 13.12 271.51 12.75 271.01 12C270.51 11.26 270.26 10.17 270.26 8.72C270.26 7.21 270.5 6.09 270.99 5.38C271.48 4.66 272.23 4.3 273.25 4.3C274.23 4.3 274.98 4.67 275.48 5.42C275.99 6.17 276.25 7.27 276.25 8.72ZM272.06 8.72C272.06 9.77 272.15 10.52 272.33 10.98C272.51 11.43 272.82 11.66 273.25 11.66C273.67 11.66 273.97 11.43 274.16 10.97C274.35 10.51 274.44 9.76 274.44 8.72C274.44 7.67 274.35 6.91 274.15 6.46C273.97 5.99 273.66 5.76 273.25 5.76C272.82 5.76 272.52 5.99 272.33 6.46C272.15 6.91 272.06 7.67 272.06 8.72ZM281.13 13L284.34 5.97L280.12 5.97L280.12 4.45L286.27 4.45L286.27 5.58L283.02 13L281.13 13ZM293.12 13L287.13 13L287.13 11.74L289.28 9.57C289.92 8.91 290.34 8.46 290.53 8.21C290.73 7.96 290.87 7.72 290.95 7.51C291.04 7.29 291.08 7.07 291.08 6.84C291.08 6.5 290.99 6.24 290.8 6.07C290.61 5.91 290.36 5.82 290.04 5.82C289.71 5.82 289.38 5.9 289.07 6.05C288.76 6.2 288.43 6.42 288.09 6.7L287.11 5.54C287.53 5.18 287.88 4.92 288.16 4.77C288.44 4.63 288.74 4.51 289.07 4.43C289.39 4.35 289.76 4.31 290.17 4.31C290.7 4.31 291.18 4.41 291.59 4.6C292 4.8 292.31 5.07 292.54 5.42C292.77 5.78 292.88 6.18 292.88 6.63C292.88 7.03 292.81 7.4 292.67 7.74C292.53 8.09 292.32 8.44 292.02 8.8C291.74 9.17 291.23 9.69 290.49 10.36L289.39 11.39L289.39 11.48L293.12 11.48L293.12 13ZM299.94 8.09C299.94 9.78 299.59 11.04 298.88 11.87C298.16 12.7 297.09 13.12 295.65 13.12C295.14 13.12 294.75 13.09 294.49 13.04L294.49 11.58C294.82 11.66 295.16 11.71 295.52 11.71C296.13 11.71 296.63 11.62 297.02 11.44C297.41 11.26 297.71 10.98 297.91 10.6C298.12 10.22 298.24 9.7 298.27 9.03L298.2 9.03C297.98 9.39 297.71 9.65 297.42 9.8C297.12 9.95 296.75 10.02 296.3 10.02C295.56 10.02 294.97 9.79 294.54 9.31C294.11 8.83 293.89 8.16 293.89 7.31C293.89 6.39 294.15 5.67 294.67 5.14C295.2 4.6 295.91 4.33 296.81 4.33C297.44 4.33 297.99 4.48 298.46 4.78C298.94 5.08 299.31 5.51 299.56 6.07C299.81 6.64 299.94 7.31 299.94 8.09ZM296.84 5.79C296.47 5.79 296.17 5.92 295.96 6.17C295.75 6.43 295.65 6.8 295.65 7.29C295.65 7.7 295.74 8.03 295.93 8.27C296.13 8.51 296.42 8.63 296.81 8.63C297.17 8.63 297.49 8.52 297.75 8.28C298.01 8.04 298.14 7.76 298.14 7.45C298.14 6.98 298.02 6.59 297.77 6.27C297.53 5.95 297.22 5.79 296.84 5.79ZM308.44 13L306.63 13L306.63 8.04L306.64 7.23L306.67 6.34C306.37 6.64 306.16 6.84 306.05 6.93L305.06 7.72L304.19 6.63L306.95 4.43L308.44 4.43L308.44 13ZM316.47 6.35C316.47 6.88 316.31 7.34 315.98 7.71C315.66 8.09 315.2 8.35 314.62 8.49L314.62 8.52C315.31 8.61 315.83 8.82 316.19 9.16C316.55 9.49 316.72 9.94 316.72 10.5C316.72 11.33 316.42 11.97 315.83 12.43C315.23 12.89 314.38 13.12 313.27 13.12C312.34 13.12 311.51 12.96 310.79 12.65L310.79 11.11C311.13 11.28 311.49 11.42 311.89 11.52C312.29 11.63 312.68 11.68 313.07 11.68C313.67 11.68 314.11 11.58 314.4 11.38C314.68 11.17 314.82 10.85 314.82 10.4C314.82 10 314.66 9.71 314.33 9.54C314 9.38 313.48 9.29 312.76 9.29L312.11 9.29L312.11 7.9L312.77 7.9C313.44 7.9 313.92 7.82 314.23 7.64C314.54 7.47 314.69 7.17 314.69 6.75C314.69 6.1 314.28 5.78 313.47 5.78C313.19 5.78 312.9 5.82 312.61 5.92C312.32 6.01 312 6.17 311.64 6.4L310.81 5.15C311.59 4.59 312.52 4.31 313.6 4.31C314.49 4.31 315.19 4.49 315.7 4.85C316.21 5.21 316.47 5.71 316.47 6.35ZM322.15 13L320.34 13L320.34 8.04L320.36 7.23L320.38 6.34C320.08 6.64 319.88 6.84 319.76 6.93L318.77 7.72L317.9 6.63L320.66 4.43L322.15 4.43L322.15 13ZM327.59 9.36C327.59 7.67 327.94 6.4 328.66 5.58C329.38 4.75 330.45 4.33 331.88 4.33C332.37 4.33 332.75 4.36 333.03 4.42L333.03 5.87C332.68 5.79 332.34 5.75 332 5.75C331.38 5.75 330.87 5.85 330.48 6.03C330.08 6.22 329.79 6.5 329.6 6.87C329.4 7.23 329.29 7.75 329.25 8.43L329.33 8.43C329.71 7.77 330.33 7.43 331.18 7.43C331.95 7.43 332.55 7.67 332.98 8.15C333.42 8.63 333.63 9.3 333.63 10.15C333.63 11.06 333.38 11.79 332.86 12.32C332.34 12.85 331.63 13.12 330.71 13.12C330.08 13.12 329.53 12.97 329.06 12.68C328.59 12.38 328.23 11.96 327.97 11.39C327.71 10.83 327.59 10.15 327.59 9.36ZM330.68 11.67C331.07 11.67 331.36 11.54 331.57 11.28C331.78 11.02 331.88 10.65 331.88 10.17C331.88 9.75 331.78 9.42 331.59 9.19C331.4 8.94 331.11 8.82 330.71 8.82C330.35 8.82 330.03 8.94 329.77 9.18C329.51 9.42 329.38 9.7 329.38 10.01C329.38 10.48 329.51 10.87 329.75 11.19C329.99 11.51 330.31 11.67 330.68 11.67ZM340.15 6.35C340.15 6.88 339.99 7.34 339.67 7.71C339.34 8.09 338.89 8.35 338.3 8.49L338.3 8.52C338.99 8.61 339.52 8.82 339.87 9.16C340.23 9.49 340.41 9.94 340.41 10.5C340.41 11.33 340.11 11.97 339.51 12.43C338.91 12.89 338.06 13.12 336.95 13.12C336.02 13.12 335.19 12.96 334.48 12.65L334.48 11.11C334.81 11.28 335.17 11.42 335.57 11.52C335.97 11.63 336.37 11.68 336.76 11.68C337.35 11.68 337.8 11.58 338.08 11.38C338.37 11.17 338.51 10.85 338.51 10.4C338.51 10 338.34 9.71 338.02 9.54C337.69 9.38 337.16 9.29 336.44 9.29L335.8 9.29L335.8 7.9L336.46 7.9C337.12 7.9 337.61 7.82 337.91 7.64C338.22 7.47 338.37 7.17 338.37 6.75C338.37 6.1 337.97 5.78 337.15 5.78C336.87 5.78 336.59 5.82 336.29 5.92C336 6.01 335.68 6.17 335.33 6.4L334.49 5.15C335.27 4.59 336.2 4.31 337.28 4.31C338.17 4.31 338.87 4.49 339.38 4.85C339.9 5.21 340.15 5.71 340.15 6.35ZM342.2 13L345.42 5.97L341.2 5.97L341.2 4.45L347.34 4.45L347.34 5.58L344.1 13L342.2 13ZM352.63 4.43L349.44 13L347.81 13L351.01 4.43L352.63 4.43ZM355.47 9.41L353.2 9.41L353.2 8.13L355.47 8.13L355.47 5.85L356.75 5.85L356.75 8.13L359.02 8.13L359.02 9.41L356.75 9.41L356.75 11.67L355.47 11.67L355.47 9.41ZM366.2 11.22L365.17 11.22L365.17 13L363.4 13L363.4 11.22L359.75 11.22L359.75 9.96L363.5 4.43L365.17 4.43L365.17 9.82L366.2 9.82L366.2 11.22ZM363.4 9.82L363.4 8.37C363.4 8.12 363.41 7.77 363.43 7.31C363.45 6.85 363.47 6.58 363.48 6.51L363.43 6.51C363.29 6.83 363.12 7.14 362.91 7.45L361.34 9.82L363.4 9.82ZM372.82 8.72C372.82 10.21 372.57 11.32 372.08 12.04C371.59 12.76 370.84 13.12 369.82 13.12C368.83 13.12 368.09 12.75 367.58 12C367.08 11.26 366.83 10.17 366.83 8.72C366.83 7.21 367.08 6.09 367.56 5.38C368.05 4.66 368.81 4.3 369.82 4.3C370.81 4.3 371.56 4.67 372.06 5.42C372.57 6.17 372.82 7.27 372.82 8.72ZM368.63 8.72C368.63 9.77 368.72 10.52 368.9 10.98C369.08 11.43 369.39 11.66 369.82 11.66C370.24 11.66 370.55 11.43 370.73 10.97C370.92 10.51 371.02 9.76 371.02 8.72C371.02 7.67 370.92 6.91 370.73 6.46C370.54 5.99 370.24 5.76 369.82 5.76C369.39 5.76 369.09 5.99 368.91 6.46C368.72 6.91 368.63 7.67 368.63 8.72ZM377.7 13L380.92 5.97L376.69 5.97L376.69 4.45L382.84 4.45L382.84 5.58L379.6 13L377.7 13ZM389.69 13L383.71 13L383.71 11.74L385.86 9.57C386.49 8.91 386.91 8.46 387.11 8.21C387.3 7.96 387.44 7.72 387.53 7.51C387.61 7.29 387.66 7.07 387.66 6.84C387.66 6.5 387.56 6.24 387.37 6.07C387.18 5.91 386.93 5.82 386.61 5.82C386.28 5.82 385.96 5.9 385.65 6.05C385.33 6.2 385.01 6.42 384.67 6.7L383.68 5.54C384.11 5.18 384.45 4.92 384.73 4.77C385.01 4.63 385.31 4.51 385.64 4.43C385.97 4.35 386.34 4.31 386.74 4.31C387.28 4.31 387.75 4.41 388.16 4.6C388.57 4.8 388.89 5.07 389.12 5.42C389.34 5.78 389.45 6.18 389.45 6.63C389.45 7.03 389.38 7.4 389.24 7.74C389.11 8.09 388.89 8.44 388.6 8.8C388.31 9.17 387.8 9.69 387.06 10.36L385.96 11.39L385.96 11.48L389.69 11.48L389.69 13ZM390.5 9.36C390.5 7.67 390.86 6.4 391.58 5.58C392.3 4.75 393.37 4.33 394.8 4.33C395.29 4.33 395.67 4.36 395.95 4.42L395.95 5.87C395.6 5.79 395.26 5.75 394.92 5.75C394.3 5.75 393.79 5.85 393.39 6.03C393 6.22 392.71 6.5 392.51 6.87C392.32 7.23 392.2 7.75 392.17 8.43L392.24 8.43C392.63 7.77 393.25 7.43 394.1 7.43C394.87 7.43 395.47 7.67 395.9 8.15C396.33 8.63 396.55 9.3 396.55 10.15C396.55 11.06 396.29 11.79 395.78 12.32C395.26 12.85 394.55 13.12 393.63 13.12C393 13.12 392.45 12.97 391.98 12.68C391.51 12.38 391.14 11.96 390.88 11.39C390.63 10.83 390.5 10.15 390.5 9.36ZM393.6 11.67C393.98 11.67 394.28 11.54 394.49 11.28C394.69 11.02 394.8 10.65 394.8 10.17C394.8 9.75 394.7 9.42 394.51 9.19C394.31 8.94 394.02 8.82 393.63 8.82C393.27 8.82 392.95 8.94 392.69 9.18C392.43 9.42 392.3 9.7 392.3 10.01C392.3 10.48 392.42 10.87 392.67 11.19C392.91 11.51 393.22 11.67 393.6 11.67ZM406.72 11.22L405.69 11.22L405.69 13L403.92 13L403.92 11.22L400.26 11.22L400.26 9.96L404.02 4.43L405.69 4.43L405.69 9.82L406.72 9.82L406.72 11.22ZM403.92 9.82L403.92 8.37C403.92 8.12 403.93 7.77 403.94 7.31C403.96 6.85 403.98 6.58 403.99 6.51L403.94 6.51C403.8 6.83 403.63 7.14 403.42 7.45L401.85 9.82L403.92 9.82ZM410.51 7.53C411.34 7.53 411.99 7.76 412.48 8.22C412.98 8.69 413.22 9.33 413.22 10.13C413.22 11.09 412.93 11.83 412.34 12.34C411.75 12.86 410.9 13.12 409.81 13.12C408.85 13.12 408.08 12.96 407.5 12.65L407.5 11.09C407.81 11.25 408.16 11.39 408.57 11.49C408.98 11.6 409.37 11.65 409.74 11.65C410.85 11.65 411.4 11.19 411.4 10.29C411.4 9.42 410.83 8.99 409.68 8.99C409.48 8.99 409.25 9.01 409 9.06C408.75 9.1 408.54 9.14 408.39 9.19L407.67 8.8L407.99 4.43L412.63 4.43L412.63 5.97L409.58 5.97L409.42 7.65L409.62 7.61C409.86 7.55 410.16 7.53 410.51 7.53ZM417.2 4.32C418.02 4.32 418.68 4.51 419.18 4.88C419.68 5.26 419.94 5.76 419.94 6.39C419.94 6.83 419.81 7.22 419.57 7.56C419.33 7.9 418.94 8.21 418.4 8.48C419.04 8.82 419.5 9.18 419.78 9.55C420.06 9.93 420.2 10.33 420.2 10.78C420.2 11.48 419.92 12.05 419.37 12.48C418.82 12.9 418.1 13.12 417.2 13.12C416.26 13.12 415.52 12.92 414.99 12.52C414.45 12.12 414.19 11.56 414.19 10.83C414.19 10.34 414.32 9.9 414.57 9.53C414.84 9.15 415.25 8.81 415.83 8.52C415.34 8.21 414.99 7.88 414.77 7.53C414.56 7.18 414.45 6.8 414.45 6.38C414.45 5.77 414.7 5.27 415.21 4.89C415.72 4.51 416.38 4.32 417.2 4.32ZM415.86 10.72C415.86 11.06 415.98 11.32 416.21 11.51C416.45 11.69 416.77 11.79 417.18 11.79C417.63 11.79 417.96 11.69 418.18 11.5C418.41 11.3 418.52 11.05 418.52 10.73C418.52 10.47 418.41 10.23 418.18 10C417.96 9.77 417.61 9.53 417.11 9.27C416.28 9.65 415.86 10.13 415.86 10.72ZM417.19 5.65C416.88 5.65 416.63 5.73 416.44 5.89C416.25 6.04 416.16 6.25 416.16 6.52C416.16 6.75 416.23 6.96 416.38 7.15C416.53 7.34 416.81 7.53 417.2 7.72C417.58 7.54 417.85 7.36 418 7.17C418.15 6.98 418.23 6.77 418.23 6.52C418.23 6.25 418.13 6.04 417.94 5.88C417.74 5.72 417.49 5.65 417.19 5.65ZM425.07 13L428.29 5.97L424.06 5.97L424.06 4.45L430.21 4.45L430.21 5.58L426.97 13L425.07 13ZM434.03 4.32C434.85 4.32 435.51 4.51 436.01 4.88C436.51 5.26 436.76 5.76 436.76 6.39C436.76 6.83 436.64 7.22 436.4 7.56C436.16 7.9 435.77 8.21 435.23 8.48C435.87 8.82 436.33 9.18 436.61 9.55C436.89 9.93 437.03 10.33 437.03 10.78C437.03 11.48 436.75 12.05 436.2 12.48C435.65 12.9 434.93 13.12 434.03 13.12C433.09 13.12 432.35 12.92 431.82 12.52C431.28 12.12 431.02 11.56 431.02 10.83C431.02 10.34 431.14 9.9 431.4 9.53C431.66 9.15 432.08 8.81 432.66 8.52C432.17 8.21 431.82 7.88 431.6 7.53C431.39 7.18 431.28 6.8 431.28 6.38C431.28 5.77 431.53 5.27 432.04 4.89C432.55 4.51 433.21 4.32 434.03 4.32ZM432.69 10.72C432.69 11.06 432.81 11.32 433.04 11.51C433.28 11.69 433.6 11.79 434 11.79C434.45 11.79 434.79 11.69 435.01 11.5C435.23 11.3 435.35 11.05 435.35 10.73C435.35 10.47 435.23 10.23 435.01 10C434.79 9.77 434.44 9.53 433.94 9.27C433.11 9.65 432.69 10.13 432.69 10.72ZM434.02 5.65C433.71 5.65 433.46 5.73 433.27 5.89C433.08 6.04 432.98 6.25 432.98 6.52C432.98 6.75 433.06 6.96 433.21 7.15C433.36 7.34 433.63 7.53 434.03 7.72C434.41 7.54 434.68 7.36 434.83 7.17C434.98 6.98 435.06 6.77 435.06 6.52C435.06 6.25 434.96 6.04 434.77 5.88C434.57 5.72 434.32 5.65 434.02 5.65ZM443.92 13L437.93 13L437.93 11.74L440.08 9.57C440.72 8.91 441.13 8.46 441.33 8.21C441.52 7.96 441.66 7.72 441.75 7.51C441.84 7.29 441.88 7.07 441.88 6.84C441.88 6.5 441.78 6.24 441.59 6.07C441.4 5.91 441.15 5.82 440.84 5.82C440.5 5.82 440.18 5.9 439.87 6.05C439.56 6.2 439.23 6.42 438.89 6.7L437.91 5.54C438.33 5.18 438.68 4.92 438.95 4.77C439.23 4.63 439.54 4.51 439.86 4.43C440.19 4.35 440.56 4.31 440.96 4.31C441.5 4.31 441.97 4.41 442.38 4.6C442.79 4.8 443.11 5.07 443.34 5.42C443.56 5.78 443.68 6.18 443.68 6.63C443.68 7.03 443.61 7.4 443.47 7.74C443.33 8.09 443.12 8.44 442.82 8.8C442.53 9.17 442.02 9.69 441.29 10.36L440.19 11.39L440.19 11.48L443.92 11.48L443.92 13ZM499.51 9.71C499.51 10.78 499.23 11.61 498.66 12.21C498.1 12.82 497.32 13.12 496.31 13.12C495.69 13.12 495.13 12.98 494.65 12.71C494.17 12.43 493.8 12.03 493.54 11.52C493.29 11 493.16 10.4 493.16 9.71C493.16 8.64 493.44 7.81 493.99 7.22C494.55 6.62 495.34 6.33 496.35 6.33C496.98 6.33 497.53 6.46 498.01 6.74C498.49 7.01 498.86 7.4 499.12 7.91C499.38 8.43 499.51 9.03 499.51 9.71ZM494.98 9.71C494.98 10.36 495.08 10.85 495.3 11.18C495.51 11.52 495.86 11.68 496.34 11.68C496.81 11.68 497.16 11.52 497.36 11.19C497.57 10.86 497.68 10.37 497.68 9.71C497.68 9.06 497.57 8.58 497.36 8.25C497.15 7.93 496.81 7.77 496.33 7.77C495.85 7.77 495.51 7.93 495.3 8.25C495.08 8.57 494.98 9.06 494.98 9.71ZM504.61 7.79L503.06 7.79L503.06 13L501.27 13L501.27 7.79L500.29 7.79L500.29 6.93L501.27 6.45L501.27 5.97C501.27 5.22 501.45 4.68 501.82 4.33C502.19 3.99 502.78 3.82 503.59 3.82C504.2 3.82 504.75 3.91 505.23 4.09L504.77 5.41C504.42 5.29 504.08 5.24 503.78 5.24C503.52 5.24 503.34 5.31 503.23 5.46C503.12 5.61 503.06 5.8 503.06 6.04L503.06 6.45L504.61 6.45L504.61 7.79ZM509.25 7.79L507.7 7.79L507.7 13L505.92 13L505.92 7.79L504.93 7.79L504.93 6.93L505.92 6.45L505.92 5.97C505.92 5.22 506.1 4.68 506.47 4.33C506.84 3.99 507.42 3.82 508.23 3.82C508.85 3.82 509.4 3.91 509.88 4.09L509.42 5.41C509.06 5.29 508.73 5.24 508.43 5.24C508.17 5.24 507.99 5.31 507.88 5.46C507.76 5.61 507.7 5.8 507.7 6.04L507.7 6.45L509.25 6.45L509.25 7.79ZM510.18 4.76C510.18 4.17 510.51 3.88 511.16 3.88C511.81 3.88 512.13 4.17 512.13 4.76C512.13 5.03 512.05 5.25 511.88 5.41C511.72 5.56 511.48 5.63 511.16 5.63C510.51 5.63 510.18 5.34 510.18 4.76ZM512.05 13L510.26 13L510.26 6.45L512.05 6.45L512.05 13ZM516.58 13.12C514.54 13.12 513.52 12 513.52 9.76C513.52 8.65 513.8 7.8 514.36 7.21C514.91 6.62 515.71 6.33 516.74 6.33C517.5 6.33 518.18 6.47 518.78 6.77L518.25 8.15C517.97 8.04 517.71 7.95 517.47 7.88C517.23 7.8 516.98 7.77 516.74 7.77C515.81 7.77 515.35 8.43 515.35 9.75C515.35 11.03 515.81 11.67 516.74 11.67C517.08 11.67 517.4 11.63 517.7 11.54C517.99 11.44 518.28 11.3 518.57 11.1L518.57 12.63C518.28 12.81 517.99 12.94 517.7 13.01C517.4 13.08 517.03 13.12 516.58 13.12ZM523.06 13.12C522.01 13.12 521.18 12.83 520.59 12.24C520 11.66 519.7 10.84 519.7 9.77C519.7 8.67 519.97 7.83 520.52 7.23C521.07 6.63 521.83 6.33 522.8 6.33C523.73 6.33 524.45 6.59 524.96 7.12C525.48 7.64 525.73 8.37 525.73 9.3L525.73 10.17L521.51 10.17C521.53 10.68 521.68 11.07 521.96 11.36C522.24 11.64 522.64 11.79 523.14 11.79C523.54 11.79 523.91 11.75 524.26 11.66C524.62 11.58 524.98 11.45 525.37 11.27L525.37 12.65C525.05 12.81 524.72 12.93 524.36 13C524.01 13.08 523.57 13.12 523.06 13.12ZM522.81 7.6C522.43 7.6 522.13 7.72 521.92 7.96C521.71 8.2 521.58 8.54 521.55 8.98L524.06 8.98C524.05 8.54 523.94 8.2 523.71 7.96C523.49 7.72 523.19 7.6 522.81 7.6ZM536.42 8.59C536.42 9.16 536.33 9.67 536.15 10.14C535.97 10.61 535.71 10.97 535.38 11.24C535.06 11.5 534.68 11.63 534.24 11.63C533.95 11.63 533.7 11.57 533.48 11.43C533.25 11.29 533.09 11.11 532.99 10.88L532.9 10.88C532.48 11.38 531.94 11.63 531.29 11.63C530.6 11.63 530.05 11.43 529.65 11.01C529.26 10.6 529.06 10.03 529.06 9.3C529.06 8.48 529.32 7.81 529.84 7.31C530.37 6.81 531.05 6.55 531.89 6.55C532.23 6.55 532.6 6.59 533 6.65C533.41 6.72 533.74 6.79 534 6.88L533.87 9.75C533.87 10.29 534.02 10.56 534.31 10.56C534.56 10.56 534.76 10.38 534.91 10.02C535.06 9.65 535.13 9.17 535.13 8.58C535.13 7.95 535 7.4 534.74 6.92C534.48 6.43 534.11 6.06 533.63 5.81C533.16 5.56 532.62 5.43 532.01 5.43C531.22 5.43 530.53 5.59 529.95 5.92C529.37 6.24 528.92 6.71 528.61 7.32C528.3 7.93 528.15 8.64 528.15 9.44C528.15 10.52 528.44 11.34 529.01 11.92C529.59 12.5 530.42 12.78 531.52 12.78C531.93 12.78 532.39 12.74 532.88 12.65C533.38 12.55 533.87 12.42 534.35 12.24L534.35 13.37C533.51 13.72 532.58 13.9 531.56 13.9C530.08 13.9 528.92 13.51 528.09 12.73C527.26 11.95 526.85 10.86 526.85 9.47C526.85 8.51 527.06 7.63 527.48 6.85C527.91 6.06 528.51 5.44 529.29 5C530.08 4.55 530.98 4.32 532 4.32C532.86 4.32 533.63 4.5 534.3 4.85C534.98 5.2 535.5 5.7 535.87 6.35C536.23 7 536.42 7.75 536.42 8.59ZM530.42 9.33C530.42 10.15 530.75 10.56 531.42 10.56C531.77 10.56 532.04 10.44 532.23 10.19C532.41 9.94 532.52 9.54 532.56 8.98L532.64 7.69C532.44 7.64 532.21 7.62 531.96 7.62C531.48 7.62 531.09 7.77 530.82 8.08C530.55 8.38 530.42 8.8 530.42 9.33ZM543.82 13L542.03 13L542.03 9.17C542.03 8.7 541.96 8.35 541.79 8.11C541.64 7.88 541.39 7.76 541.05 7.76C540.59 7.76 540.26 7.92 540.05 8.26C539.85 8.6 539.74 9.15 539.74 9.92L539.74 13L537.96 13L537.96 6.45L539.32 6.45L539.56 7.29L539.66 7.29C539.84 6.99 540.09 6.75 540.42 6.58C540.76 6.41 541.14 6.33 541.57 6.33C542.55 6.33 543.21 6.65 543.56 7.29L543.72 7.29C543.89 6.98 544.15 6.75 544.49 6.58C544.83 6.41 545.22 6.33 545.65 6.33C546.39 6.33 546.95 6.52 547.33 6.9C547.72 7.28 547.91 7.89 547.91 8.73L547.91 13L546.11 13L546.11 9.17C546.11 8.7 546.03 8.35 545.87 8.11C545.72 7.88 545.47 7.76 545.13 7.76C544.69 7.76 544.36 7.91 544.14 8.22C543.93 8.54 543.82 9.03 543.82 9.71L543.82 13ZM549.67 4.76C549.67 4.17 549.99 3.88 550.64 3.88C551.29 3.88 551.62 4.17 551.62 4.76C551.62 5.03 551.53 5.25 551.37 5.41C551.21 5.56 550.97 5.63 550.64 5.63C549.99 5.63 549.67 5.34 549.67 4.76ZM551.53 13L549.75 13L549.75 6.45L551.53 6.45L551.53 13ZM559.46 13L557.67 13L557.67 9.17C557.67 8.7 557.59 8.35 557.42 8.11C557.25 7.88 556.99 7.76 556.62 7.76C556.12 7.76 555.76 7.92 555.53 8.26C555.31 8.59 555.2 9.14 555.2 9.92L555.2 13L553.41 13L553.41 6.45L554.78 6.45L555.02 7.29L555.12 7.29C555.32 6.97 555.59 6.73 555.94 6.57C556.29 6.41 556.69 6.33 557.13 6.33C557.9 6.33 558.48 6.53 558.87 6.95C559.26 7.36 559.46 7.95 559.46 8.73L559.46 13ZM563.38 13.12C562.61 13.12 562 12.82 561.56 12.22C561.12 11.62 560.9 10.79 560.9 9.74C560.9 8.66 561.13 7.83 561.57 7.23C562.02 6.63 562.64 6.33 563.42 6.33C564.25 6.33 564.88 6.65 565.31 7.29L565.37 7.29C565.28 6.8 565.23 6.36 565.23 5.98L565.23 3.88L567.02 3.88L567.02 13L565.65 13L565.31 12.15L565.23 12.15C564.83 12.79 564.21 13.12 563.38 13.12ZM564 11.69C564.46 11.69 564.79 11.56 565 11.29C565.22 11.03 565.34 10.58 565.36 9.94L565.36 9.75C565.36 9.04 565.25 8.54 565.03 8.24C564.81 7.93 564.46 7.78 563.97 7.78C563.57 7.78 563.26 7.95 563.04 8.29C562.82 8.63 562.71 9.12 562.71 9.76C562.71 10.4 562.82 10.89 563.05 11.21C563.27 11.53 563.59 11.69 564 11.69ZM572.54 6.33C573.31 6.33 573.92 6.63 574.36 7.23C574.79 7.84 575.01 8.66 575.01 9.71C575.01 10.79 574.78 11.63 574.33 12.23C573.88 12.82 573.27 13.12 572.49 13.12C571.72 13.12 571.12 12.84 570.68 12.28L570.56 12.28L570.26 13L568.89 13L568.89 3.88L570.68 3.88L570.68 6C570.68 6.27 570.66 6.71 570.61 7.3L570.68 7.3C571.1 6.65 571.72 6.33 572.54 6.33ZM571.97 7.76C571.52 7.76 571.2 7.89 571 8.17C570.79 8.44 570.69 8.88 570.68 9.51L570.68 9.7C570.68 10.4 570.78 10.91 570.99 11.21C571.2 11.52 571.53 11.67 571.99 11.67C572.36 11.67 572.65 11.5 572.86 11.17C573.08 10.83 573.19 10.33 573.19 9.69C573.19 9.04 573.08 8.56 572.86 8.24C572.64 7.92 572.34 7.76 571.97 7.76ZM578.27 13L576.49 13L576.49 3.88L578.27 3.88L578.27 13ZM580.08 4.76C580.08 4.17 580.4 3.88 581.05 3.88C581.7 3.88 582.02 4.17 582.02 4.76C582.02 5.03 581.94 5.25 581.78 5.41C581.62 5.56 581.38 5.63 581.05 5.63C580.4 5.63 580.08 5.34 580.08 4.76ZM581.94 13L580.16 13L580.16 6.45L581.94 6.45L581.94 13ZM588.39 11.05C588.39 11.73 588.16 12.24 587.69 12.59C587.23 12.94 586.53 13.12 585.6 13.12C585.12 13.12 584.72 13.08 584.38 13.02C584.04 12.96 583.73 12.86 583.44 12.74L583.44 11.26C583.77 11.42 584.14 11.55 584.56 11.65C584.98 11.76 585.34 11.81 585.66 11.81C586.31 11.81 586.63 11.62 586.63 11.25C586.63 11.11 586.59 10.99 586.5 10.91C586.42 10.82 586.27 10.72 586.06 10.61C585.85 10.5 585.56 10.37 585.21 10.22C584.71 10.01 584.34 9.81 584.1 9.63C583.87 9.45 583.69 9.25 583.58 9.02C583.48 8.78 583.43 8.49 583.43 8.15C583.43 7.57 583.65 7.12 584.1 6.81C584.55 6.49 585.19 6.33 586.02 6.33C586.81 6.33 587.58 6.5 588.32 6.84L587.78 8.13C587.46 7.99 587.15 7.88 586.87 7.79C586.58 7.7 586.29 7.65 585.99 7.65C585.47 7.65 585.2 7.79 585.2 8.08C585.2 8.24 585.28 8.38 585.45 8.49C585.63 8.61 586 8.79 586.57 9.02C587.08 9.22 587.46 9.42 587.7 9.6C587.94 9.78 588.11 9.98 588.23 10.22C588.34 10.45 588.39 10.73 588.39 11.05ZM592.55 11.69C592.86 11.69 593.24 11.63 593.67 11.49L593.67 12.82C593.23 13.02 592.68 13.12 592.03 13.12C591.32 13.12 590.8 12.94 590.47 12.58C590.14 12.21 589.98 11.67 589.98 10.95L589.98 7.79L589.13 7.79L589.13 7.04L590.11 6.44L590.63 5.05L591.77 5.05L591.77 6.45L593.6 6.45L593.6 7.79L591.77 7.79L591.77 10.95C591.77 11.2 591.84 11.39 591.98 11.51C592.13 11.63 592.31 11.69 592.55 11.69ZM597.97 13.12C596.91 13.12 596.09 12.83 595.5 12.24C594.9 11.66 594.61 10.84 594.61 9.77C594.61 8.67 594.88 7.83 595.43 7.23C595.98 6.63 596.74 6.33 597.71 6.33C598.63 6.33 599.35 6.59 599.87 7.12C600.38 7.64 600.64 8.37 600.64 9.3L600.64 10.17L596.42 10.17C596.44 10.68 596.59 11.07 596.87 11.36C597.15 11.64 597.54 11.79 598.05 11.79C598.45 11.79 598.82 11.75 599.17 11.66C599.52 11.58 599.89 11.45 600.27 11.27L600.27 12.65C599.96 12.81 599.63 12.93 599.27 13C598.91 13.08 598.48 13.12 597.97 13.12ZM597.72 7.6C597.34 7.6 597.04 7.72 596.83 7.96C596.61 8.2 596.49 8.54 596.46 8.98L598.97 8.98C598.96 8.54 598.84 8.2 598.62 7.96C598.4 7.72 598.1 7.6 597.72 7.6ZM605.75 6.33C605.99 6.33 606.19 6.34 606.35 6.38L606.22 8.05C606.07 8.02 605.9 8 605.69 8C605.12 8 604.68 8.14 604.36 8.44C604.04 8.73 603.88 9.14 603.88 9.67L603.88 13L602.09 13L602.09 6.45L603.45 6.45L603.71 7.55L603.8 7.55C604 7.18 604.27 6.89 604.62 6.67C604.97 6.44 605.34 6.33 605.75 6.33ZM607.29 12.16C607.29 11.83 607.38 11.59 607.55 11.42C607.73 11.25 607.99 11.17 608.32 11.17C608.65 11.17 608.9 11.25 609.07 11.42C609.25 11.6 609.34 11.84 609.34 12.16C609.34 12.47 609.25 12.71 609.07 12.89C608.89 13.07 608.64 13.16 608.32 13.16C607.99 13.16 607.74 13.07 607.56 12.9C607.38 12.72 607.29 12.48 607.29 12.16ZM613.63 13.12C611.59 13.12 610.57 12 610.57 9.76C610.57 8.65 610.84 7.8 611.4 7.21C611.95 6.62 612.75 6.33 613.78 6.33C614.54 6.33 615.22 6.47 615.82 6.77L615.29 8.15C615.01 8.04 614.75 7.95 614.51 7.88C614.27 7.8 614.02 7.77 613.78 7.77C612.85 7.77 612.39 8.43 612.39 9.75C612.39 11.03 612.85 11.67 613.78 11.67C614.13 11.67 614.45 11.63 614.74 11.54C615.03 11.44 615.32 11.3 615.62 11.1L615.62 12.63C615.33 12.81 615.03 12.94 614.74 13.01C614.45 13.08 614.07 13.12 613.63 13.12ZM623.09 9.71C623.09 10.78 622.81 11.61 622.25 12.21C621.69 12.82 620.9 13.12 619.9 13.12C619.27 13.12 618.72 12.98 618.24 12.71C617.76 12.43 617.39 12.03 617.13 11.52C616.87 11 616.74 10.4 616.74 9.71C616.74 8.64 617.02 7.81 617.58 7.22C618.14 6.62 618.92 6.33 619.94 6.33C620.56 6.33 621.12 6.46 621.6 6.74C622.08 7.01 622.45 7.4 622.71 7.91C622.97 8.43 623.09 9.03 623.09 9.71ZM618.56 9.71C618.56 10.36 618.67 10.85 618.88 11.18C619.1 11.52 619.44 11.68 619.92 11.68C620.4 11.68 620.74 11.52 620.95 11.19C621.16 10.86 621.27 10.37 621.27 9.71C621.27 9.06 621.16 8.58 620.95 8.25C620.74 7.93 620.39 7.77 619.91 7.77C619.44 7.77 619.09 7.93 618.88 8.25C618.67 8.57 618.56 9.06 618.56 9.71ZM630.44 13L628.65 13L628.65 9.17C628.65 8.7 628.57 8.35 628.41 8.11C628.25 7.88 628 7.76 627.66 7.76C627.21 7.76 626.88 7.92 626.67 8.26C626.46 8.6 626.36 9.15 626.36 9.92L626.36 13L624.57 13L624.57 6.45L625.94 6.45L626.18 7.29L626.27 7.29C626.45 6.99 626.71 6.75 627.04 6.58C627.37 6.41 627.75 6.33 628.18 6.33C629.16 6.33 629.82 6.65 630.17 7.29L630.33 7.29C630.51 6.98 630.76 6.75 631.1 6.58C631.45 6.41 631.83 6.33 632.26 6.33C633.01 6.33 633.57 6.52 633.95 6.9C634.33 7.28 634.52 7.89 634.52 8.73L634.52 13L632.73 13L632.73 9.17C632.73 8.7 632.65 8.35 632.49 8.11C632.33 7.88 632.08 7.76 631.74 7.76C631.3 7.76 630.98 7.91 630.76 8.22C630.54 8.54 630.44 9.03 630.44 9.71L630.44 13Z" />
</svg>