<svg xmlns="http://www.w3.org/2000/svg" viewBox="0 0 17 12" width="17" height="12">
	<style>
		tspan { white-space:pre }
		.shp0 { fill: #e8c300 } 
		.shp1 { opacity: 0.502;fill: #333333 } 
	</style>
	<path id="Layer" fill-rule="evenodd" class="shp0" d="M-459 4C-459 1.1 -456.68 -1.25 -453.75 -1.25C-450.85 -1.25 -448.5 1.1 -448.5 4C-448.5 6.13 -449.24 6.73 -453.23 12.48C-453.48 12.86 -454.05 12.86 -454.3 12.48C-458.29 6.73 -459 6.13 -459 4ZM-451.56 4C-451.56 2.8 -452.55 1.81 -453.75 1.81C-454.98 1.81 -455.94 2.8 -455.94 4C-455.94 5.23 -454.98 6.19 -453.75 6.19C-452.55 6.19 -451.56 5.23 -451.56 4ZM-246.61 0.06C-246.61 7.09 -252.3 12.75 -259.3 12.75C-259.63 12.75 -259.88 12.56 -259.96 12.26L-260.61 9.41C-260.67 9.11 -260.53 8.79 -260.23 8.65L-257.17 7.34C-256.89 7.23 -256.59 7.31 -256.4 7.53L-255.03 9.2C-252.9 8.18 -251.18 6.43 -250.19 4.36L-251.86 2.99C-252.08 2.8 -252.16 2.5 -252.06 2.22L-250.74 -0.84C-250.6 -1.14 -250.28 -1.3 -249.98 -1.22L-247.13 -0.57C-246.83 -0.48 -246.61 -0.24 -246.61 0.06ZM14.89 4.11L14.89 9.69C14.89 10.43 14.29 11 13.58 11L2.2 11C1.46 11 0.89 10.43 0.89 9.69L0.89 4.11C0.89 3.97 1.03 3.89 1.14 3.97C1.77 4.46 2.56 5.07 5.35 7.09C5.92 7.5 6.91 8.4 7.89 8.4C8.85 8.4 9.86 7.5 10.41 7.09C13.19 5.07 13.99 4.46 14.62 3.97C14.73 3.89 14.89 3.97 14.89 4.11ZM5.87 6.38C2.23 3.75 1.96 3.51 1.14 2.85C0.97 2.74 0.89 2.55 0.89 2.33L0.89 1.81C0.89 1.1 1.46 0.5 2.2 0.5L13.58 0.5C14.29 0.5 14.89 1.1 14.89 1.81L14.89 2.33C14.89 2.55 14.78 2.74 14.62 2.85C13.8 3.51 13.52 3.75 9.89 6.38C9.42 6.71 8.52 7.53 7.89 7.5C7.23 7.53 6.33 6.71 5.87 6.38Z" />
	<path id="Layer" fill-rule="evenodd" class="shp1" d="M-435.55 5.53C-434.72 5.53 -434.06 5.76 -433.58 6.22C-433.08 6.69 -432.84 7.33 -432.84 8.13C-432.84 9.09 -433.13 9.83 -433.72 10.34C-434.31 10.86 -435.16 11.12 -436.25 11.12C-437.21 11.12 -437.98 10.96 -438.56 10.65L-438.56 9.09C-438.25 9.25 -437.89 9.39 -437.48 9.49C-437.07 9.6 -436.69 9.65 -436.32 9.65C-435.21 9.65 -434.66 9.19 -434.66 8.29C-434.66 7.42 -435.23 6.99 -436.38 6.99C-436.58 6.99 -436.81 7.01 -437.06 7.06C-437.31 7.1 -437.52 7.14 -437.67 7.19L-438.39 6.8L-438.07 2.43L-433.42 2.43L-433.42 3.97L-436.48 3.97L-436.64 5.65L-436.44 5.61C-436.2 5.55 -435.9 5.53 -435.55 5.53ZM-428.6 9.69C-428.28 9.69 -427.91 9.63 -427.47 9.49L-427.47 10.82C-427.92 11.02 -428.46 11.12 -429.11 11.12C-429.83 11.12 -430.35 10.94 -430.68 10.58C-431 10.21 -431.16 9.67 -431.16 8.95L-431.16 5.79L-432.02 5.79L-432.02 5.04L-431.03 4.44L-430.52 3.05L-429.38 3.05L-429.38 4.45L-427.54 4.45L-427.54 5.79L-429.38 5.79L-429.38 8.95C-429.38 9.2 -429.3 9.39 -429.16 9.51C-429.02 9.63 -428.83 9.69 -428.6 9.69ZM-420.09 11L-421.88 11L-421.88 7.17C-421.88 6.23 -422.23 5.76 -422.94 5.76C-423.44 5.76 -423.8 5.93 -424.02 6.27C-424.24 6.61 -424.35 7.16 -424.35 7.92L-424.35 11L-426.14 11L-426.14 1.88L-424.35 1.88L-424.35 3.74C-424.35 3.88 -424.37 4.22 -424.39 4.76L-424.44 5.29L-424.34 5.29C-423.94 4.65 -423.31 4.33 -422.44 4.33C-421.67 4.33 -421.09 4.53 -420.69 4.95C-420.29 5.36 -420.09 5.96 -420.09 6.73L-420.09 11ZM-415 11L-415 2.43L-413.18 2.43L-413.18 9.5L-409.71 9.5L-409.71 11L-415 11ZM-402.4 7.71C-402.4 8.78 -402.68 9.61 -403.24 10.21C-403.8 10.82 -404.59 11.12 -405.59 11.12C-406.22 11.12 -406.78 10.98 -407.26 10.71C-407.74 10.43 -408.11 10.03 -408.36 9.52C-408.62 9 -408.75 8.4 -408.75 7.71C-408.75 6.64 -408.47 5.81 -407.91 5.22C-407.35 4.62 -406.57 4.33 -405.56 4.33C-404.93 4.33 -404.37 4.46 -403.89 4.74C-403.41 5.01 -403.04 5.4 -402.79 5.91C-402.53 6.43 -402.4 7.03 -402.4 7.71ZM-406.93 7.71C-406.93 8.36 -406.82 8.85 -406.61 9.18C-406.4 9.52 -406.05 9.68 -405.57 9.68C-405.09 9.68 -404.75 9.52 -404.54 9.19C-404.33 8.86 -404.23 8.37 -404.23 7.71C-404.23 7.06 -404.33 6.58 -404.54 6.25C-404.75 5.93 -405.1 5.77 -405.58 5.77C-406.06 5.77 -406.4 5.93 -406.61 6.25C-406.82 6.57 -406.93 7.06 -406.93 7.71ZM-394.88 11L-396.66 11L-396.66 7.17C-396.66 6.7 -396.75 6.35 -396.91 6.11C-397.08 5.88 -397.35 5.76 -397.72 5.76C-398.22 5.76 -398.58 5.92 -398.8 6.26C-399.02 6.59 -399.13 7.14 -399.13 7.92L-399.13 11L-400.92 11L-400.92 4.45L-399.56 4.45L-399.32 5.29L-399.22 5.29C-399.02 4.97 -398.74 4.73 -398.4 4.57C-398.04 4.41 -397.65 4.33 -397.2 4.33C-396.44 4.33 -395.86 4.53 -395.47 4.95C-395.07 5.36 -394.88 5.95 -394.88 6.73L-394.88 11ZM-390.96 11.12C-391.73 11.12 -392.34 10.82 -392.78 10.22C-393.21 9.62 -393.43 8.79 -393.43 7.74C-393.43 6.66 -393.21 5.83 -392.77 5.23C-392.32 4.63 -391.7 4.33 -390.91 4.33C-390.09 4.33 -389.46 4.65 -389.03 5.29L-388.97 5.29C-389.06 4.8 -389.1 4.36 -389.1 3.98L-389.1 1.88L-387.31 1.88L-387.31 11L-388.68 11L-389.03 10.15L-389.1 10.15C-389.51 10.79 -390.13 11.12 -390.96 11.12ZM-390.33 9.69C-389.88 9.69 -389.54 9.56 -389.33 9.29C-389.12 9.03 -389 8.58 -388.98 7.94L-388.98 7.75C-388.98 7.04 -389.09 6.54 -389.31 6.24C-389.52 5.93 -389.88 5.78 -390.36 5.78C-390.76 5.78 -391.07 5.95 -391.29 6.29C-391.51 6.63 -391.62 7.12 -391.62 7.76C-391.62 8.4 -391.51 8.89 -391.29 9.21C-391.07 9.53 -390.75 9.69 -390.33 9.69ZM-379.49 7.71C-379.49 8.78 -379.77 9.61 -380.33 10.21C-380.89 10.82 -381.68 11.12 -382.68 11.12C-383.31 11.12 -383.87 10.98 -384.35 10.71C-384.83 10.43 -385.2 10.03 -385.45 9.52C-385.71 9 -385.84 8.4 -385.84 7.71C-385.84 6.64 -385.56 5.81 -385 5.22C-384.44 4.62 -383.66 4.33 -382.65 4.33C-382.02 4.33 -381.46 4.46 -380.98 4.74C-380.5 5.01 -380.13 5.4 -379.88 5.91C-379.62 6.43 -379.49 7.03 -379.49 7.71ZM-384.02 7.71C-384.02 8.36 -383.91 8.85 -383.7 9.18C-383.49 9.52 -383.14 9.68 -382.66 9.68C-382.18 9.68 -381.84 9.52 -381.63 9.19C-381.42 8.86 -381.32 8.37 -381.32 7.71C-381.32 7.06 -381.42 6.58 -381.63 6.25C-381.84 5.93 -382.19 5.77 -382.67 5.77C-383.15 5.77 -383.49 5.93 -383.7 6.25C-383.91 6.57 -384.02 7.06 -384.02 7.71ZM-371.96 11L-373.75 11L-373.75 7.17C-373.75 6.7 -373.84 6.35 -374 6.11C-374.17 5.88 -374.44 5.76 -374.81 5.76C-375.31 5.76 -375.67 5.92 -375.89 6.26C-376.11 6.59 -376.22 7.14 -376.22 7.92L-376.22 11L-378.01 11L-378.01 4.45L-376.65 4.45L-376.41 5.29L-376.31 5.29C-376.11 4.97 -375.83 4.73 -375.49 4.57C-375.13 4.41 -374.74 4.33 -374.29 4.33C-373.53 4.33 -372.95 4.53 -372.56 4.95C-372.16 5.36 -371.96 5.95 -371.96 6.73L-371.96 11ZM-366.87 2.43L-364.2 2.43C-362.99 2.43 -362.11 2.61 -361.56 2.96C-361.01 3.3 -360.73 3.85 -360.73 4.6C-360.73 5.11 -360.85 5.53 -361.1 5.86C-361.33 6.19 -361.65 6.39 -362.05 6.45L-362.05 6.51C-361.51 6.63 -361.12 6.86 -360.88 7.19C-360.64 7.52 -360.52 7.96 -360.52 8.52C-360.52 9.3 -360.8 9.91 -361.37 10.34C-361.93 10.78 -362.69 11 -363.66 11L-366.87 11L-366.87 2.43ZM-365.05 5.83L-364 5.83C-363.5 5.83 -363.15 5.75 -362.93 5.6C-362.71 5.45 -362.6 5.19 -362.6 4.84C-362.6 4.51 -362.72 4.28 -362.96 4.14C-363.2 3.99 -363.58 3.92 -364.1 3.92L-365.05 3.92L-365.05 5.83ZM-365.05 7.27L-365.05 9.5L-363.87 9.5C-363.37 9.5 -363 9.4 -362.76 9.21C-362.52 9.02 -362.4 8.73 -362.4 8.33C-362.4 7.62 -362.91 7.27 -363.93 7.27L-365.05 7.27ZM-352.99 7.71C-352.99 8.78 -353.27 9.61 -353.84 10.21C-354.4 10.82 -355.18 11.12 -356.19 11.12C-356.81 11.12 -357.37 10.98 -357.85 10.71C-358.33 10.43 -358.7 10.03 -358.96 9.52C-359.21 9 -359.34 8.4 -359.34 7.71C-359.34 6.64 -359.06 5.81 -358.51 5.22C-357.95 4.62 -357.16 4.33 -356.15 4.33C-355.52 4.33 -354.97 4.46 -354.49 4.74C-354.01 5.01 -353.64 5.4 -353.38 5.91C-353.12 6.43 -352.99 7.03 -352.99 7.71ZM-357.52 7.71C-357.52 8.36 -357.42 8.85 -357.2 9.18C-356.99 9.52 -356.64 9.68 -356.16 9.68C-355.69 9.68 -355.34 9.52 -355.14 9.19C-354.93 8.86 -354.82 8.37 -354.82 7.71C-354.82 7.06 -354.93 6.58 -355.14 6.25C-355.35 5.93 -355.69 5.77 -356.17 5.77C-356.65 5.77 -356.99 5.93 -357.2 6.25C-357.42 6.57 -357.52 7.06 -357.52 7.71ZM-346.88 11L-347.12 10.16L-347.21 10.16C-347.4 10.47 -347.67 10.7 -348.02 10.87C-348.38 11.04 -348.77 11.12 -349.23 11.12C-349.99 11.12 -350.57 10.91 -350.97 10.5C-351.36 10.09 -351.55 9.49 -351.55 8.72L-351.55 4.45L-349.76 4.45L-349.76 8.28C-349.76 8.75 -349.68 9.1 -349.51 9.34C-349.34 9.58 -349.08 9.69 -348.71 9.69C-348.21 9.69 -347.85 9.53 -347.63 9.2C-347.4 8.86 -347.29 8.3 -347.29 7.53L-347.29 4.45L-345.5 4.45L-345.5 11L-346.88 11ZM-341.84 11L-343.63 11L-343.63 1.88L-341.84 1.88L-341.84 11ZM-337 11.12C-338.05 11.12 -338.88 10.83 -339.47 10.24C-340.06 9.66 -340.36 8.84 -340.36 7.77C-340.36 6.67 -340.09 5.83 -339.54 5.23C-338.99 4.63 -338.23 4.33 -337.26 4.33C-336.33 4.33 -335.61 4.59 -335.1 5.12C-334.58 5.64 -334.32 6.37 -334.32 7.3L-334.32 8.17L-338.55 8.17C-338.53 8.68 -338.38 9.07 -338.1 9.36C-337.82 9.64 -337.42 9.79 -336.91 9.79C-336.52 9.79 -336.15 9.75 -335.8 9.66C-335.44 9.58 -335.08 9.45 -334.69 9.27L-334.69 10.65C-335.01 10.81 -335.34 10.93 -335.69 11C-336.05 11.08 -336.48 11.12 -337 11.12ZM-337.25 5.6C-337.63 5.6 -337.92 5.72 -338.14 5.96C-338.35 6.2 -338.48 6.54 -338.51 6.98L-336 6.98C-336.01 6.54 -336.12 6.2 -336.35 5.96C-336.57 5.72 -336.87 5.6 -337.25 5.6ZM-331.31 11L-333.81 4.45L-331.94 4.45L-330.67 8.18C-330.53 8.65 -330.44 9.1 -330.41 9.52L-330.38 9.52C-330.36 9.15 -330.27 8.7 -330.11 8.18L-328.85 4.45L-326.98 4.45L-329.48 11L-331.31 11ZM-321.88 11L-322.23 10.11L-322.27 10.11C-322.57 10.49 -322.88 10.75 -323.2 10.9C-323.52 11.04 -323.93 11.12 -324.44 11.12C-325.07 11.12 -325.57 10.94 -325.93 10.58C-326.29 10.22 -326.47 9.71 -326.47 9.04C-326.47 8.35 -326.23 7.84 -325.75 7.51C-325.26 7.18 -324.52 6.99 -323.54 6.96L-322.41 6.92L-322.41 6.63C-322.41 5.97 -322.75 5.64 -323.43 5.64C-323.95 5.64 -324.56 5.8 -325.27 6.11L-325.86 4.91C-325.11 4.51 -324.27 4.31 -323.36 4.31C-322.48 4.31 -321.8 4.51 -321.33 4.89C-320.87 5.27 -320.63 5.85 -320.63 6.63L-320.63 11L-321.88 11ZM-322.41 7.96L-323.1 7.99C-323.62 8 -324 8.1 -324.26 8.27C-324.51 8.44 -324.64 8.7 -324.64 9.05C-324.64 9.56 -324.35 9.81 -323.77 9.81C-323.36 9.81 -323.03 9.69 -322.78 9.45C-322.53 9.21 -322.41 8.9 -322.41 8.5L-322.41 7.96ZM-315.13 4.33C-314.89 4.33 -314.69 4.34 -314.52 4.38L-314.66 6.05C-314.81 6.02 -314.98 6 -315.19 6C-315.76 6 -316.2 6.14 -316.52 6.44C-316.84 6.73 -317 7.14 -317 7.67L-317 11L-318.78 11L-318.78 4.45L-317.43 4.45L-317.17 5.55L-317.08 5.55C-316.88 5.18 -316.6 4.89 -316.26 4.67C-315.91 4.44 -315.53 4.33 -315.13 4.33ZM-311.26 11.12C-312.03 11.12 -312.64 10.82 -313.08 10.22C-313.52 9.62 -313.73 8.79 -313.73 7.74C-313.73 6.66 -313.51 5.83 -313.07 5.23C-312.62 4.63 -312 4.33 -311.22 4.33C-310.39 4.33 -309.76 4.65 -309.33 5.29L-309.27 5.29C-309.36 4.8 -309.4 4.36 -309.4 3.98L-309.4 1.88L-307.61 1.88L-307.61 11L-308.98 11L-309.33 10.15L-309.4 10.15C-309.81 10.79 -310.43 11.12 -311.26 11.12ZM-310.63 9.69C-310.18 9.69 -309.84 9.56 -309.63 9.29C-309.42 9.03 -309.3 8.58 -309.28 7.94L-309.28 7.75C-309.28 7.04 -309.39 6.54 -309.61 6.24C-309.82 5.93 -310.18 5.78 -310.66 5.78C-311.06 5.78 -311.37 5.95 -311.6 6.29C-311.81 6.63 -311.92 7.12 -311.92 7.76C-311.92 8.4 -311.81 8.89 -311.59 9.21C-311.37 9.53 -311.05 9.69 -310.63 9.69ZM-303.99 9.74C-304.19 10.53 -304.54 11.46 -305.02 12.55L-306.31 12.55C-306.06 11.51 -305.86 10.53 -305.72 9.61L-304.08 9.61L-303.99 9.74ZM-292.03 2.43L-292.03 7.98C-292.03 8.61 -292.17 9.16 -292.46 9.64C-292.74 10.12 -293.15 10.48 -293.68 10.74C-294.22 10.99 -294.85 11.12 -295.58 11.12C-296.68 11.12 -297.54 10.84 -298.15 10.27C-298.76 9.71 -299.06 8.93 -299.06 7.95L-299.06 2.43L-297.25 2.43L-297.25 7.68C-297.25 8.34 -297.12 8.82 -296.85 9.13C-296.59 9.44 -296.15 9.59 -295.53 9.59C-294.94 9.59 -294.51 9.44 -294.25 9.13C-293.98 8.82 -293.84 8.33 -293.84 7.67L-293.84 2.43L-292.03 2.43ZM-290.33 10.16C-290.33 9.83 -290.24 9.59 -290.06 9.42C-289.89 9.25 -289.63 9.17 -289.29 9.17C-288.97 9.17 -288.72 9.25 -288.54 9.42C-288.37 9.6 -288.27 9.84 -288.27 10.16C-288.27 10.47 -288.37 10.71 -288.54 10.89C-288.73 11.07 -288.98 11.16 -289.29 11.16C-289.62 11.16 -289.88 11.07 -290.06 10.9C-290.24 10.72 -290.33 10.48 -290.33 10.16ZM-279.62 11L-281.68 11L-283.93 7.39L-284.69 7.94L-284.69 11L-286.51 11L-286.51 2.43L-284.69 2.43L-284.69 6.35L-283.98 5.35L-281.66 2.43L-279.64 2.43L-282.63 6.22L-279.62 11ZM-278.94 10.16C-278.94 9.83 -278.85 9.59 -278.67 9.42C-278.5 9.25 -278.24 9.17 -277.9 9.17C-277.58 9.17 -277.33 9.25 -277.15 9.42C-276.98 9.6 -276.88 9.84 -276.88 10.16C-276.88 10.47 -276.98 10.71 -277.15 10.89C-277.33 11.07 -277.58 11.16 -277.9 11.16C-278.23 11.16 -278.49 11.07 -278.67 10.9C-278.85 10.72 -278.94 10.48 -278.94 10.16ZM-200.1 7.41L-202.37 7.41L-202.37 6.13L-200.1 6.13L-200.1 3.85L-198.82 3.85L-198.82 6.13L-196.55 6.13L-196.55 7.41L-198.82 7.41L-198.82 9.67L-200.1 9.67L-200.1 7.41ZM-189.37 9.22L-190.4 9.22L-190.4 11L-192.17 11L-192.17 9.22L-195.83 9.22L-195.83 7.96L-192.07 2.43L-190.4 2.43L-190.4 7.82L-189.37 7.82L-189.37 9.22ZM-192.17 7.82L-192.17 6.37C-192.17 6.12 -192.16 5.77 -192.14 5.31C-192.12 4.85 -192.11 4.58 -192.09 4.51L-192.14 4.51C-192.29 4.83 -192.46 5.14 -192.66 5.45L-194.23 7.82L-192.17 7.82ZM-182.75 6.72C-182.75 8.21 -183 9.32 -183.49 10.04C-183.98 10.76 -184.73 11.12 -185.75 11.12C-186.74 11.12 -187.49 10.75 -187.99 10C-188.49 9.26 -188.74 8.17 -188.74 6.72C-188.74 5.21 -188.5 4.09 -188.01 3.38C-187.52 2.66 -186.77 2.3 -185.75 2.3C-184.77 2.3 -184.02 2.67 -183.52 3.42C-183.01 4.17 -182.75 5.27 -182.75 6.72ZM-186.94 6.72C-186.94 7.77 -186.85 8.52 -186.67 8.98C-186.49 9.43 -186.18 9.66 -185.75 9.66C-185.33 9.66 -185.03 9.43 -184.84 8.97C-184.65 8.51 -184.56 7.76 -184.56 6.72C-184.56 5.67 -184.65 4.91 -184.85 4.46C-185.03 3.99 -185.34 3.76 -185.75 3.76C-186.18 3.76 -186.48 3.99 -186.67 4.46C-186.85 4.91 -186.94 5.67 -186.94 6.72ZM-177.87 11L-174.66 3.97L-178.88 3.97L-178.88 2.45L-172.73 2.45L-172.73 3.58L-175.98 11L-177.87 11ZM-165.88 11L-171.87 11L-171.87 9.74L-169.72 7.57C-169.08 6.91 -168.66 6.46 -168.47 6.21C-168.27 5.96 -168.13 5.72 -168.05 5.51C-167.96 5.29 -167.92 5.07 -167.92 4.84C-167.92 4.5 -168.01 4.24 -168.2 4.07C-168.39 3.91 -168.64 3.82 -168.96 3.82C-169.29 3.82 -169.62 3.9 -169.93 4.05C-170.24 4.2 -170.57 4.42 -170.91 4.7L-171.89 3.54C-171.47 3.18 -171.12 2.92 -170.84 2.77C-170.56 2.63 -170.26 2.51 -169.93 2.43C-169.61 2.35 -169.24 2.31 -168.83 2.31C-168.3 2.31 -167.82 2.41 -167.41 2.6C-167 2.8 -166.69 3.07 -166.46 3.42C-166.23 3.78 -166.12 4.18 -166.12 4.63C-166.12 5.03 -166.19 5.4 -166.33 5.74C-166.47 6.09 -166.68 6.44 -166.98 6.8C-167.26 7.17 -167.77 7.69 -168.51 8.36L-169.61 9.39L-169.61 9.48L-165.88 9.48L-165.88 11ZM-159.06 6.09C-159.06 7.78 -159.41 9.04 -160.13 9.87C-160.84 10.7 -161.91 11.12 -163.35 11.12C-163.86 11.12 -164.25 11.09 -164.51 11.04L-164.51 9.58C-164.18 9.66 -163.84 9.71 -163.48 9.71C-162.87 9.71 -162.37 9.62 -161.98 9.44C-161.59 9.26 -161.29 8.98 -161.09 8.6C-160.88 8.22 -160.76 7.7 -160.73 7.03L-160.8 7.03C-161.02 7.39 -161.29 7.65 -161.58 7.8C-161.88 7.95 -162.25 8.02 -162.7 8.02C-163.44 8.02 -164.03 7.79 -164.46 7.31C-164.89 6.83 -165.11 6.16 -165.11 5.31C-165.11 4.39 -164.85 3.67 -164.33 3.14C-163.8 2.6 -163.09 2.33 -162.19 2.33C-161.56 2.33 -161.01 2.48 -160.54 2.78C-160.06 3.08 -159.69 3.51 -159.44 4.07C-159.19 4.64 -159.06 5.31 -159.06 6.09ZM-162.16 3.79C-162.53 3.79 -162.83 3.92 -163.04 4.17C-163.25 4.43 -163.35 4.8 -163.35 5.29C-163.35 5.7 -163.26 6.03 -163.07 6.27C-162.88 6.51 -162.58 6.63 -162.19 6.63C-161.83 6.63 -161.51 6.52 -161.25 6.28C-160.99 6.04 -160.86 5.76 -160.86 5.45C-160.86 4.98 -160.98 4.59 -161.23 4.27C-161.47 3.95 -161.78 3.79 -162.16 3.79ZM-150.56 11L-152.37 11L-152.37 6.04L-152.36 5.23L-152.33 4.34C-152.63 4.64 -152.84 4.84 -152.95 4.93L-153.94 5.72L-154.81 4.63L-152.05 2.43L-150.56 2.43L-150.56 11ZM-142.53 4.35C-142.53 4.88 -142.69 5.34 -143.02 5.71C-143.34 6.09 -143.8 6.35 -144.38 6.49L-144.38 6.52C-143.69 6.61 -143.17 6.82 -142.81 7.16C-142.45 7.49 -142.28 7.94 -142.28 8.5C-142.28 9.33 -142.58 9.97 -143.17 10.43C-143.77 10.89 -144.63 11.12 -145.73 11.12C-146.66 11.12 -147.49 10.96 -148.21 10.65L-148.21 9.11C-147.88 9.28 -147.51 9.42 -147.11 9.52C-146.71 9.63 -146.32 9.68 -145.93 9.68C-145.33 9.68 -144.89 9.58 -144.6 9.38C-144.32 9.17 -144.18 8.85 -144.18 8.4C-144.18 8 -144.34 7.71 -144.67 7.54C-145 7.38 -145.52 7.29 -146.24 7.29L-146.89 7.29L-146.89 5.9L-146.23 5.9C-145.56 5.9 -145.08 5.82 -144.77 5.64C-144.46 5.47 -144.31 5.17 -144.31 4.75C-144.31 4.1 -144.72 3.78 -145.53 3.78C-145.81 3.78 -146.1 3.82 -146.39 3.92C-146.68 4.01 -147 4.17 -147.36 4.4L-148.19 3.15C-147.41 2.59 -146.48 2.31 -145.4 2.31C-144.51 2.31 -143.81 2.49 -143.3 2.85C-142.79 3.21 -142.53 3.71 -142.53 4.35ZM-136.85 11L-138.66 11L-138.66 6.04L-138.64 5.23L-138.62 4.34C-138.92 4.64 -139.13 4.84 -139.24 4.93L-140.23 5.72L-141.1 4.63L-138.34 2.43L-136.85 2.43L-136.85 11ZM-131.41 7.36C-131.41 5.67 -131.06 4.4 -130.34 3.58C-129.62 2.75 -128.55 2.33 -127.12 2.33C-126.63 2.33 -126.25 2.36 -125.97 2.42L-125.97 3.87C-126.32 3.79 -126.66 3.75 -127 3.75C-127.62 3.75 -128.13 3.85 -128.52 4.03C-128.92 4.22 -129.21 4.5 -129.4 4.87C-129.6 5.23 -129.71 5.75 -129.75 6.43L-129.67 6.43C-129.29 5.77 -128.67 5.43 -127.82 5.43C-127.05 5.43 -126.45 5.67 -126.02 6.15C-125.58 6.63 -125.37 7.3 -125.37 8.15C-125.37 9.06 -125.63 9.79 -126.14 10.32C-126.66 10.85 -127.37 11.12 -128.29 11.12C-128.92 11.12 -129.47 10.97 -129.94 10.68C-130.41 10.38 -130.77 9.96 -131.03 9.39C-131.29 8.83 -131.41 8.15 -131.41 7.36ZM-128.32 9.67C-127.93 9.67 -127.64 9.54 -127.43 9.28C-127.22 9.02 -127.12 8.65 -127.12 8.17C-127.12 7.75 -127.22 7.42 -127.41 7.19C-127.6 6.94 -127.89 6.82 -128.29 6.82C-128.65 6.82 -128.97 6.94 -129.23 7.18C-129.49 7.42 -129.62 7.7 -129.62 8.01C-129.62 8.48 -129.49 8.87 -129.25 9.19C-129.01 9.51 -128.69 9.67 -128.32 9.67ZM-118.85 4.35C-118.85 4.88 -119.01 5.34 -119.33 5.71C-119.66 6.09 -120.11 6.35 -120.7 6.49L-120.7 6.52C-120.01 6.61 -119.48 6.82 -119.13 7.16C-118.77 7.49 -118.59 7.94 -118.59 8.5C-118.59 9.33 -118.89 9.97 -119.49 10.43C-120.09 10.89 -120.94 11.12 -122.05 11.12C-122.98 11.12 -123.81 10.96 -124.52 10.65L-124.52 9.11C-124.19 9.28 -123.83 9.42 -123.43 9.52C-123.03 9.63 -122.63 9.68 -122.24 9.68C-121.65 9.68 -121.2 9.58 -120.92 9.38C-120.63 9.17 -120.49 8.85 -120.49 8.4C-120.49 8 -120.66 7.71 -120.98 7.54C-121.31 7.38 -121.84 7.29 -122.56 7.29L-123.2 7.29L-123.2 5.9L-122.54 5.9C-121.88 5.9 -121.39 5.82 -121.09 5.64C-120.78 5.47 -120.63 5.17 -120.63 4.75C-120.63 4.1 -121.03 3.78 -121.85 3.78C-122.13 3.78 -122.41 3.82 -122.71 3.92C-123 4.01 -123.32 4.17 -123.67 4.4L-124.51 3.15C-123.73 2.59 -122.8 2.31 -121.72 2.31C-120.83 2.31 -120.13 2.49 -119.62 2.85C-119.1 3.21 -118.85 3.71 -118.85 4.35ZM-116.8 11L-113.58 3.97L-117.8 3.97L-117.8 2.45L-111.66 2.45L-111.66 3.58L-114.9 11L-116.8 11ZM-106.37 2.43L-109.56 11L-111.19 11L-107.99 2.43L-106.37 2.43ZM-103.53 7.41L-105.8 7.41L-105.8 6.13L-103.53 6.13L-103.53 3.85L-102.25 3.85L-102.25 6.13L-99.98 6.13L-99.98 7.41L-102.25 7.41L-102.25 9.67L-103.53 9.67L-103.53 7.41ZM-92.8 9.22L-93.83 9.22L-93.83 11L-95.6 11L-95.6 9.22L-99.25 9.22L-99.25 7.96L-95.5 2.43L-93.83 2.43L-93.83 7.82L-92.8 7.82L-92.8 9.22ZM-95.6 7.82L-95.6 6.37C-95.6 6.12 -95.59 5.77 -95.57 5.31C-95.55 4.85 -95.53 4.58 -95.52 4.51L-95.57 4.51C-95.71 4.83 -95.88 5.14 -96.09 5.45L-97.66 7.82L-95.6 7.82ZM-86.18 6.72C-86.18 8.21 -86.43 9.32 -86.92 10.04C-87.41 10.76 -88.16 11.12 -89.18 11.12C-90.17 11.12 -90.91 10.75 -91.42 10C-91.92 9.26 -92.17 8.17 -92.17 6.72C-92.17 5.21 -91.92 4.09 -91.44 3.38C-90.95 2.66 -90.19 2.3 -89.18 2.3C-88.19 2.3 -87.44 2.67 -86.94 3.42C-86.43 4.17 -86.18 5.27 -86.18 6.72ZM-90.37 6.72C-90.37 7.77 -90.28 8.52 -90.1 8.98C-89.92 9.43 -89.61 9.66 -89.18 9.66C-88.76 9.66 -88.45 9.43 -88.27 8.97C-88.08 8.51 -87.98 7.76 -87.98 6.72C-87.98 5.67 -88.08 4.91 -88.27 4.46C-88.46 3.99 -88.76 3.76 -89.18 3.76C-89.61 3.76 -89.91 3.99 -90.09 4.46C-90.28 4.91 -90.37 5.67 -90.37 6.72ZM-81.3 11L-78.08 3.97L-82.31 3.97L-82.31 2.45L-76.16 2.45L-76.16 3.58L-79.4 11L-81.3 11ZM-69.31 11L-75.29 11L-75.29 9.74L-73.14 7.57C-72.51 6.91 -72.09 6.46 -71.89 6.21C-71.7 5.96 -71.56 5.72 -71.47 5.51C-71.39 5.29 -71.34 5.07 -71.34 4.84C-71.34 4.5 -71.44 4.24 -71.63 4.07C-71.82 3.91 -72.07 3.82 -72.39 3.82C-72.72 3.82 -73.04 3.9 -73.35 4.05C-73.67 4.2 -73.99 4.42 -74.33 4.7L-75.32 3.54C-74.89 3.18 -74.55 2.92 -74.27 2.77C-73.99 2.63 -73.69 2.51 -73.36 2.43C-73.03 2.35 -72.66 2.31 -72.26 2.31C-71.72 2.31 -71.25 2.41 -70.84 2.6C-70.43 2.8 -70.11 3.07 -69.88 3.42C-69.66 3.78 -69.55 4.18 -69.55 4.63C-69.55 5.03 -69.62 5.4 -69.76 5.74C-69.89 6.09 -70.11 6.44 -70.4 6.8C-70.69 7.17 -71.2 7.69 -71.94 8.36L-73.04 9.39L-73.04 9.48L-69.31 9.48L-69.31 11ZM-68.5 7.36C-68.5 5.67 -68.14 4.4 -67.42 3.58C-66.7 2.75 -65.63 2.33 -64.2 2.33C-63.71 2.33 -63.33 2.36 -63.05 2.42L-63.05 3.87C-63.4 3.79 -63.74 3.75 -64.08 3.75C-64.7 3.75 -65.21 3.85 -65.61 4.03C-66 4.22 -66.29 4.5 -66.49 4.87C-66.68 5.23 -66.8 5.75 -66.83 6.43L-66.76 6.43C-66.37 5.77 -65.75 5.43 -64.9 5.43C-64.13 5.43 -63.53 5.67 -63.1 6.15C-62.67 6.63 -62.45 7.3 -62.45 8.15C-62.45 9.06 -62.71 9.79 -63.22 10.32C-63.74 10.85 -64.45 11.12 -65.37 11.12C-66 11.12 -66.55 10.97 -67.02 10.68C-67.49 10.38 -67.86 9.96 -68.12 9.39C-68.37 8.83 -68.5 8.15 -68.5 7.36ZM-65.4 9.67C-65.02 9.67 -64.72 9.54 -64.51 9.28C-64.31 9.02 -64.2 8.65 -64.2 8.17C-64.2 7.75 -64.3 7.42 -64.49 7.19C-64.69 6.94 -64.98 6.82 -65.37 6.82C-65.73 6.82 -66.05 6.94 -66.31 7.18C-66.57 7.42 -66.7 7.7 -66.7 8.01C-66.7 8.48 -66.58 8.87 -66.33 9.19C-66.09 9.51 -65.78 9.67 -65.4 9.67ZM-52.28 9.22L-53.31 9.22L-53.31 11L-55.08 11L-55.08 9.22L-58.74 9.22L-58.74 7.96L-54.98 2.43L-53.31 2.43L-53.31 7.82L-52.28 7.82L-52.28 9.22ZM-55.08 7.82L-55.08 6.37C-55.08 6.12 -55.07 5.77 -55.06 5.31C-55.04 4.85 -55.02 4.58 -55.01 4.51L-55.06 4.51C-55.2 4.83 -55.37 5.14 -55.58 5.45L-57.15 7.82L-55.08 7.82ZM-48.49 5.53C-47.66 5.53 -47.01 5.76 -46.52 6.22C-46.02 6.69 -45.78 7.33 -45.78 8.13C-45.78 9.09 -46.07 9.83 -46.66 10.34C-47.25 10.86 -48.1 11.12 -49.19 11.12C-50.15 11.12 -50.92 10.96 -51.5 10.65L-51.5 9.09C-51.19 9.25 -50.84 9.39 -50.43 9.49C-50.02 9.6 -49.63 9.65 -49.26 9.65C-48.15 9.65 -47.6 9.19 -47.6 8.29C-47.6 7.42 -48.17 6.99 -49.32 6.99C-49.52 6.99 -49.75 7.01 -50 7.06C-50.25 7.1 -50.46 7.14 -50.61 7.19L-51.33 6.8L-51.01 2.43L-46.37 2.43L-46.37 3.97L-49.42 3.97L-49.58 5.65L-49.38 5.61C-49.14 5.55 -48.84 5.53 -48.49 5.53ZM-41.8 2.32C-40.98 2.32 -40.32 2.51 -39.82 2.88C-39.32 3.26 -39.06 3.76 -39.06 4.39C-39.06 4.83 -39.19 5.22 -39.43 5.56C-39.67 5.9 -40.06 6.21 -40.6 6.48C-39.96 6.82 -39.5 7.18 -39.22 7.55C-38.94 7.93 -38.8 8.33 -38.8 8.78C-38.8 9.48 -39.08 10.05 -39.63 10.48C-40.18 10.9 -40.9 11.12 -41.8 11.12C-42.74 11.12 -43.48 10.92 -44.01 10.52C-44.55 10.12 -44.81 9.56 -44.81 8.83C-44.81 8.34 -44.68 7.9 -44.43 7.53C-44.16 7.15 -43.75 6.81 -43.17 6.52C-43.66 6.21 -44.01 5.88 -44.23 5.53C-44.44 5.18 -44.55 4.8 -44.55 4.38C-44.55 3.77 -44.3 3.27 -43.79 2.89C-43.28 2.51 -42.62 2.32 -41.8 2.32ZM-43.14 8.72C-43.14 9.06 -43.02 9.32 -42.79 9.51C-42.55 9.69 -42.23 9.79 -41.82 9.79C-41.38 9.79 -41.04 9.69 -40.82 9.5C-40.59 9.3 -40.48 9.05 -40.48 8.73C-40.48 8.47 -40.59 8.23 -40.82 8C-41.04 7.77 -41.39 7.53 -41.89 7.27C-42.72 7.65 -43.14 8.13 -43.14 8.72ZM-41.81 3.65C-42.12 3.65 -42.37 3.73 -42.56 3.89C-42.75 4.04 -42.84 4.25 -42.84 4.52C-42.84 4.75 -42.77 4.96 -42.62 5.15C-42.47 5.34 -42.19 5.53 -41.8 5.72C-41.42 5.54 -41.15 5.36 -41 5.17C-40.85 4.98 -40.77 4.77 -40.77 4.52C-40.77 4.25 -40.87 4.04 -41.06 3.88C-41.26 3.72 -41.51 3.65 -41.81 3.65ZM-33.93 11L-30.71 3.97L-34.94 3.97L-34.94 2.45L-28.79 2.45L-28.79 3.58L-32.03 11L-33.93 11ZM-24.97 2.32C-24.15 2.32 -23.49 2.51 -22.99 2.88C-22.49 3.26 -22.24 3.76 -22.24 4.39C-22.24 4.83 -22.36 5.22 -22.6 5.56C-22.84 5.9 -23.23 6.21 -23.77 6.48C-23.13 6.82 -22.67 7.18 -22.39 7.55C-22.11 7.93 -21.97 8.33 -21.97 8.78C-21.97 9.48 -22.25 10.05 -22.8 10.48C-23.35 10.9 -24.07 11.12 -24.97 11.12C-25.91 11.12 -26.65 10.92 -27.18 10.52C-27.72 10.12 -27.98 9.56 -27.98 8.83C-27.98 8.34 -27.86 7.9 -27.6 7.53C-27.34 7.15 -26.92 6.81 -26.34 6.52C-26.83 6.21 -27.18 5.88 -27.4 5.53C-27.61 5.18 -27.72 4.8 -27.72 4.38C-27.72 3.77 -27.47 3.27 -26.96 2.89C-26.45 2.51 -25.79 2.32 -24.97 2.32ZM-26.31 8.72C-26.31 9.06 -26.19 9.32 -25.96 9.51C-25.72 9.69 -25.4 9.79 -25 9.79C-24.55 9.79 -24.21 9.69 -23.99 9.5C-23.77 9.3 -23.65 9.05 -23.65 8.73C-23.65 8.47 -23.77 8.23 -23.99 8C-24.21 7.77 -24.56 7.53 -25.06 7.27C-25.89 7.65 -26.31 8.13 -26.31 8.72ZM-24.98 3.65C-25.29 3.65 -25.54 3.73 -25.73 3.89C-25.92 4.04 -26.02 4.25 -26.02 4.52C-26.02 4.75 -25.94 4.96 -25.79 5.15C-25.64 5.34 -25.37 5.53 -24.97 5.72C-24.59 5.54 -24.32 5.36 -24.17 5.17C-24.02 4.98 -23.94 4.77 -23.94 4.52C-23.94 4.25 -24.04 4.04 -24.23 3.88C-24.43 3.72 -24.68 3.65 -24.98 3.65ZM-15.08 11L-21.07 11L-21.07 9.74L-18.92 7.57C-18.28 6.91 -17.87 6.46 -17.67 6.21C-17.48 5.96 -17.34 5.72 -17.25 5.51C-17.16 5.29 -17.12 5.07 -17.12 4.84C-17.12 4.5 -17.22 4.24 -17.41 4.07C-17.6 3.91 -17.85 3.82 -18.16 3.82C-18.5 3.82 -18.82 3.9 -19.13 4.05C-19.44 4.2 -19.77 4.42 -20.11 4.7L-21.09 3.54C-20.67 3.18 -20.32 2.92 -20.05 2.77C-19.77 2.63 -19.46 2.51 -19.14 2.43C-18.81 2.35 -18.44 2.31 -18.04 2.31C-17.5 2.31 -17.03 2.41 -16.62 2.6C-16.21 2.8 -15.89 3.07 -15.66 3.42C-15.44 3.78 -15.32 4.18 -15.32 4.63C-15.32 5.03 -15.39 5.4 -15.53 5.74C-15.67 6.09 -15.88 6.44 -16.18 6.8C-16.47 7.17 -16.98 7.69 -17.71 8.36L-18.81 9.39L-18.81 9.48L-15.08 9.48L-15.08 11ZM40.51 7.71C40.51 8.78 40.23 9.61 39.66 10.21C39.1 10.82 38.32 11.12 37.31 11.12C36.69 11.12 36.13 10.98 35.65 10.71C35.17 10.43 34.8 10.03 34.54 9.52C34.29 9 34.16 8.4 34.16 7.71C34.16 6.64 34.44 5.81 34.99 5.22C35.55 4.62 36.34 4.33 37.35 4.33C37.98 4.33 38.53 4.46 39.01 4.74C39.49 5.01 39.86 5.4 40.12 5.91C40.38 6.43 40.51 7.03 40.51 7.71ZM35.98 7.71C35.98 8.36 36.08 8.85 36.3 9.18C36.51 9.52 36.86 9.68 37.34 9.68C37.81 9.68 38.16 9.52 38.36 9.19C38.57 8.86 38.68 8.37 38.68 7.71C38.68 7.06 38.57 6.58 38.36 6.25C38.15 5.93 37.81 5.77 37.33 5.77C36.85 5.77 36.51 5.93 36.3 6.25C36.08 6.57 35.98 7.06 35.98 7.71ZM45.61 5.79L44.06 5.79L44.06 11L42.27 11L42.27 5.79L41.29 5.79L41.29 4.93L42.27 4.45L42.27 3.97C42.27 3.22 42.45 2.68 42.82 2.33C43.19 1.99 43.78 1.82 44.59 1.82C45.2 1.82 45.75 1.91 46.23 2.09L45.77 3.41C45.42 3.29 45.08 3.24 44.78 3.24C44.52 3.24 44.34 3.31 44.23 3.46C44.12 3.61 44.06 3.8 44.06 4.04L44.06 4.45L45.61 4.45L45.61 5.79ZM50.25 5.79L48.7 5.79L48.7 11L46.92 11L46.92 5.79L45.93 5.79L45.93 4.93L46.92 4.45L46.92 3.97C46.92 3.22 47.1 2.68 47.47 2.33C47.84 1.99 48.42 1.82 49.23 1.82C49.85 1.82 50.4 1.91 50.88 2.09L50.42 3.41C50.06 3.29 49.73 3.24 49.43 3.24C49.17 3.24 48.99 3.31 48.88 3.46C48.76 3.61 48.7 3.8 48.7 4.04L48.7 4.45L50.25 4.45L50.25 5.79ZM51.18 2.76C51.18 2.17 51.51 1.88 52.16 1.88C52.81 1.88 53.13 2.17 53.13 2.76C53.13 3.03 53.05 3.25 52.88 3.41C52.72 3.56 52.48 3.63 52.16 3.63C51.51 3.63 51.18 3.34 51.18 2.76ZM53.05 11L51.26 11L51.26 4.45L53.05 4.45L53.05 11ZM57.58 11.12C55.54 11.12 54.52 10 54.52 7.76C54.52 6.65 54.8 5.8 55.36 5.21C55.91 4.62 56.71 4.33 57.74 4.33C58.5 4.33 59.18 4.47 59.78 4.77L59.25 6.15C58.97 6.04 58.71 5.95 58.47 5.88C58.23 5.8 57.98 5.77 57.74 5.77C56.81 5.77 56.35 6.43 56.35 7.75C56.35 9.03 56.81 9.67 57.74 9.67C58.08 9.67 58.4 9.63 58.7 9.54C58.99 9.44 59.28 9.3 59.57 9.1L59.57 10.63C59.28 10.81 58.99 10.94 58.7 11.01C58.4 11.08 58.03 11.12 57.58 11.12ZM64.06 11.12C63.01 11.12 62.18 10.83 61.59 10.24C61 9.66 60.7 8.84 60.7 7.77C60.7 6.67 60.97 5.83 61.52 5.23C62.07 4.63 62.83 4.33 63.8 4.33C64.73 4.33 65.45 4.59 65.96 5.12C66.48 5.64 66.73 6.37 66.73 7.3L66.73 8.17L62.51 8.17C62.53 8.68 62.68 9.07 62.96 9.36C63.24 9.64 63.64 9.79 64.14 9.79C64.54 9.79 64.91 9.75 65.26 9.66C65.62 9.58 65.98 9.45 66.37 9.27L66.37 10.65C66.05 10.81 65.72 10.93 65.36 11C65.01 11.08 64.57 11.12 64.06 11.12ZM63.81 5.6C63.43 5.6 63.13 5.72 62.92 5.96C62.71 6.2 62.58 6.54 62.55 6.98L65.06 6.98C65.05 6.54 64.94 6.2 64.71 5.96C64.49 5.72 64.19 5.6 63.81 5.6ZM77.42 6.59C77.42 7.16 77.33 7.67 77.15 8.14C76.97 8.61 76.71 8.97 76.38 9.24C76.06 9.5 75.68 9.63 75.24 9.63C74.95 9.63 74.7 9.57 74.48 9.43C74.25 9.29 74.09 9.11 73.99 8.88L73.9 8.88C73.48 9.38 72.94 9.63 72.29 9.63C71.6 9.63 71.05 9.43 70.65 9.01C70.26 8.6 70.06 8.03 70.06 7.3C70.06 6.48 70.32 5.81 70.84 5.31C71.37 4.81 72.05 4.55 72.89 4.55C73.23 4.55 73.6 4.59 74 4.65C74.41 4.72 74.74 4.79 75 4.88L74.87 7.75C74.87 8.29 75.02 8.56 75.31 8.56C75.56 8.56 75.76 8.38 75.91 8.02C76.06 7.65 76.13 7.17 76.13 6.58C76.13 5.95 76 5.4 75.74 4.92C75.48 4.43 75.11 4.06 74.63 3.81C74.16 3.56 73.62 3.43 73.01 3.43C72.22 3.43 71.53 3.59 70.95 3.92C70.37 4.24 69.92 4.71 69.61 5.32C69.3 5.93 69.15 6.64 69.15 7.44C69.15 8.52 69.44 9.34 70.01 9.92C70.59 10.5 71.42 10.78 72.52 10.78C72.93 10.78 73.39 10.74 73.88 10.65C74.38 10.55 74.87 10.42 75.35 10.24L75.35 11.37C74.51 11.72 73.58 11.9 72.56 11.9C71.08 11.9 69.92 11.51 69.09 10.73C68.26 9.95 67.85 8.86 67.85 7.47C67.85 6.51 68.06 5.63 68.48 4.85C68.91 4.06 69.51 3.44 70.29 3C71.08 2.55 71.98 2.32 73 2.32C73.86 2.32 74.63 2.5 75.3 2.85C75.98 3.2 76.5 3.7 76.87 4.35C77.23 5 77.42 5.75 77.42 6.59ZM71.42 7.33C71.42 8.15 71.75 8.56 72.42 8.56C72.77 8.56 73.04 8.44 73.23 8.19C73.41 7.94 73.52 7.54 73.56 6.98L73.64 5.69C73.44 5.64 73.21 5.62 72.96 5.62C72.48 5.62 72.09 5.77 71.82 6.08C71.55 6.38 71.42 6.8 71.42 7.33ZM84.82 11L83.03 11L83.03 7.17C83.03 6.7 82.96 6.35 82.79 6.11C82.64 5.88 82.39 5.76 82.05 5.76C81.59 5.76 81.26 5.92 81.05 6.26C80.85 6.6 80.74 7.15 80.74 7.92L80.74 11L78.96 11L78.96 4.45L80.32 4.45L80.56 5.29L80.66 5.29C80.84 4.99 81.09 4.75 81.42 4.58C81.76 4.41 82.14 4.33 82.57 4.33C83.55 4.33 84.21 4.65 84.56 5.29L84.72 5.29C84.89 4.98 85.15 4.75 85.49 4.58C85.83 4.41 86.22 4.33 86.65 4.33C87.39 4.33 87.95 4.52 88.33 4.9C88.72 5.28 88.91 5.89 88.91 6.73L88.91 11L87.11 11L87.11 7.17C87.11 6.7 87.03 6.35 86.87 6.11C86.72 5.88 86.47 5.76 86.13 5.76C85.69 5.76 85.36 5.91 85.14 6.22C84.93 6.54 84.82 7.03 84.82 7.71L84.82 11ZM90.67 2.76C90.67 2.17 90.99 1.88 91.64 1.88C92.29 1.88 92.62 2.17 92.62 2.76C92.62 3.03 92.53 3.25 92.37 3.41C92.21 3.56 91.97 3.63 91.64 3.63C90.99 3.63 90.67 3.34 90.67 2.76ZM92.53 11L90.75 11L90.75 4.45L92.53 4.45L92.53 11ZM100.46 11L98.67 11L98.67 7.17C98.67 6.7 98.59 6.35 98.42 6.11C98.25 5.88 97.99 5.76 97.62 5.76C97.12 5.76 96.76 5.92 96.53 6.26C96.31 6.59 96.2 7.14 96.2 7.92L96.2 11L94.41 11L94.41 4.45L95.78 4.45L96.02 5.29L96.12 5.29C96.32 4.97 96.59 4.73 96.94 4.57C97.29 4.41 97.69 4.33 98.13 4.33C98.9 4.33 99.48 4.53 99.87 4.95C100.26 5.36 100.46 5.95 100.46 6.73L100.46 11ZM104.38 11.12C103.61 11.12 103 10.82 102.56 10.22C102.12 9.62 101.9 8.79 101.9 7.74C101.9 6.66 102.13 5.83 102.57 5.23C103.02 4.63 103.64 4.33 104.42 4.33C105.25 4.33 105.88 4.65 106.31 5.29L106.37 5.29C106.28 4.8 106.23 4.36 106.23 3.98L106.23 1.88L108.02 1.88L108.02 11L106.65 11L106.31 10.15L106.23 10.15C105.83 10.79 105.21 11.12 104.38 11.12ZM105 9.69C105.46 9.69 105.79 9.56 106 9.29C106.22 9.03 106.34 8.58 106.36 7.94L106.36 7.75C106.36 7.04 106.25 6.54 106.03 6.24C105.81 5.93 105.46 5.78 104.97 5.78C104.57 5.78 104.26 5.95 104.04 6.29C103.82 6.63 103.71 7.12 103.71 7.76C103.71 8.4 103.82 8.89 104.05 9.21C104.27 9.53 104.59 9.69 105 9.69ZM113.54 4.33C114.31 4.33 114.92 4.63 115.36 5.23C115.79 5.84 116.01 6.66 116.01 7.71C116.01 8.79 115.78 9.63 115.33 10.23C114.88 10.82 114.27 11.12 113.49 11.12C112.72 11.12 112.12 10.84 111.68 10.28L111.56 10.28L111.26 11L109.89 11L109.89 1.88L111.68 1.88L111.68 4C111.68 4.27 111.66 4.71 111.61 5.3L111.68 5.3C112.1 4.65 112.72 4.33 113.54 4.33ZM112.97 5.76C112.52 5.76 112.2 5.89 112 6.17C111.79 6.44 111.69 6.88 111.68 7.51L111.68 7.7C111.68 8.4 111.78 8.91 111.99 9.21C112.2 9.52 112.53 9.67 112.99 9.67C113.36 9.67 113.65 9.5 113.86 9.17C114.08 8.83 114.19 8.33 114.19 7.69C114.19 7.04 114.08 6.56 113.86 6.24C113.64 5.92 113.34 5.76 112.97 5.76ZM119.27 11L117.49 11L117.49 1.88L119.27 1.88L119.27 11ZM121.08 2.76C121.08 2.17 121.4 1.88 122.05 1.88C122.7 1.88 123.02 2.17 123.02 2.76C123.02 3.03 122.94 3.25 122.78 3.41C122.62 3.56 122.38 3.63 122.05 3.63C121.4 3.63 121.08 3.34 121.08 2.76ZM122.94 11L121.16 11L121.16 4.45L122.94 4.45L122.94 11ZM129.39 9.05C129.39 9.73 129.16 10.24 128.69 10.59C128.23 10.94 127.53 11.12 126.6 11.12C126.12 11.12 125.72 11.08 125.38 11.02C125.04 10.96 124.73 10.86 124.44 10.74L124.44 9.26C124.77 9.42 125.14 9.55 125.56 9.65C125.98 9.76 126.34 9.81 126.66 9.81C127.31 9.81 127.63 9.62 127.63 9.25C127.63 9.11 127.59 8.99 127.5 8.91C127.42 8.82 127.27 8.72 127.06 8.61C126.85 8.5 126.56 8.37 126.21 8.22C125.71 8.01 125.34 7.81 125.1 7.63C124.87 7.45 124.69 7.25 124.58 7.02C124.48 6.78 124.43 6.49 124.43 6.15C124.43 5.57 124.65 5.12 125.1 4.81C125.55 4.49 126.19 4.33 127.02 4.33C127.81 4.33 128.58 4.5 129.32 4.84L128.78 6.13C128.46 5.99 128.15 5.88 127.87 5.79C127.58 5.7 127.29 5.65 126.99 5.65C126.47 5.65 126.2 5.79 126.2 6.08C126.2 6.24 126.28 6.38 126.45 6.49C126.63 6.61 127 6.79 127.57 7.02C128.08 7.22 128.46 7.42 128.7 7.6C128.94 7.78 129.11 7.98 129.23 8.22C129.34 8.45 129.39 8.73 129.39 9.05ZM133.55 9.69C133.86 9.69 134.24 9.63 134.67 9.49L134.67 10.82C134.23 11.02 133.68 11.12 133.03 11.12C132.32 11.12 131.8 10.94 131.47 10.58C131.14 10.21 130.98 9.67 130.98 8.95L130.98 5.79L130.13 5.79L130.13 5.04L131.11 4.44L131.63 3.05L132.77 3.05L132.77 4.45L134.6 4.45L134.6 5.79L132.77 5.79L132.77 8.95C132.77 9.2 132.84 9.39 132.98 9.51C133.13 9.63 133.31 9.69 133.55 9.69ZM138.97 11.12C137.91 11.12 137.09 10.83 136.5 10.24C135.9 9.66 135.61 8.84 135.61 7.77C135.61 6.67 135.88 5.83 136.43 5.23C136.98 4.63 137.74 4.33 138.71 4.33C139.63 4.33 140.35 4.59 140.87 5.12C141.38 5.64 141.64 6.37 141.64 7.3L141.64 8.17L137.42 8.17C137.44 8.68 137.59 9.07 137.87 9.36C138.15 9.64 138.54 9.79 139.05 9.79C139.45 9.79 139.82 9.75 140.17 9.66C140.52 9.58 140.89 9.45 141.27 9.27L141.27 10.65C140.96 10.81 140.63 10.93 140.27 11C139.91 11.08 139.48 11.12 138.97 11.12ZM138.72 5.6C138.34 5.6 138.04 5.72 137.83 5.96C137.61 6.2 137.49 6.54 137.46 6.98L139.97 6.98C139.96 6.54 139.84 6.2 139.62 5.96C139.4 5.72 139.1 5.6 138.72 5.6ZM146.75 4.33C146.99 4.33 147.19 4.34 147.35 4.38L147.22 6.05C147.07 6.02 146.9 6 146.69 6C146.12 6 145.68 6.14 145.36 6.44C145.04 6.73 144.88 7.14 144.88 7.67L144.88 11L143.09 11L143.09 4.45L144.45 4.45L144.71 5.55L144.8 5.55C145 5.18 145.27 4.89 145.62 4.67C145.97 4.44 146.34 4.33 146.75 4.33ZM148.29 10.16C148.29 9.83 148.38 9.59 148.55 9.42C148.73 9.25 148.99 9.17 149.32 9.17C149.65 9.17 149.9 9.25 150.07 9.42C150.25 9.6 150.34 9.84 150.34 10.16C150.34 10.47 150.25 10.71 150.07 10.89C149.89 11.07 149.64 11.16 149.32 11.16C148.99 11.16 148.74 11.07 148.56 10.9C148.38 10.72 148.29 10.48 148.29 10.16ZM154.63 11.12C152.59 11.12 151.57 10 151.57 7.76C151.57 6.65 151.84 5.8 152.4 5.21C152.95 4.62 153.75 4.33 154.78 4.33C155.54 4.33 156.22 4.47 156.82 4.77L156.29 6.15C156.01 6.04 155.75 5.95 155.51 5.88C155.27 5.8 155.02 5.77 154.78 5.77C153.85 5.77 153.39 6.43 153.39 7.75C153.39 9.03 153.85 9.67 154.78 9.67C155.13 9.67 155.45 9.63 155.74 9.54C156.03 9.44 156.32 9.3 156.62 9.1L156.62 10.63C156.33 10.81 156.03 10.94 155.74 11.01C155.45 11.08 155.07 11.12 154.63 11.12ZM164.09 7.71C164.09 8.78 163.81 9.61 163.25 10.21C162.69 10.82 161.9 11.12 160.9 11.12C160.27 11.12 159.72 10.98 159.24 10.71C158.76 10.43 158.39 10.03 158.13 9.52C157.87 9 157.74 8.4 157.74 7.71C157.74 6.64 158.02 5.81 158.58 5.22C159.14 4.62 159.92 4.33 160.94 4.33C161.56 4.33 162.12 4.46 162.6 4.74C163.08 5.01 163.45 5.4 163.71 5.91C163.97 6.43 164.09 7.03 164.09 7.71ZM159.56 7.71C159.56 8.36 159.67 8.85 159.88 9.18C160.1 9.52 160.44 9.68 160.92 9.68C161.4 9.68 161.74 9.52 161.95 9.19C162.16 8.86 162.27 8.37 162.27 7.71C162.27 7.06 162.16 6.58 161.95 6.25C161.74 5.93 161.39 5.77 160.91 5.77C160.44 5.77 160.09 5.93 159.88 6.25C159.67 6.57 159.56 7.06 159.56 7.71ZM171.44 11L169.65 11L169.65 7.17C169.65 6.7 169.57 6.35 169.41 6.11C169.25 5.88 169 5.76 168.66 5.76C168.21 5.76 167.88 5.92 167.67 6.26C167.46 6.6 167.36 7.15 167.36 7.92L167.36 11L165.57 11L165.57 4.45L166.94 4.45L167.18 5.29L167.27 5.29C167.45 4.99 167.71 4.75 168.04 4.58C168.37 4.41 168.75 4.33 169.18 4.33C170.16 4.33 170.82 4.65 171.17 5.29L171.33 5.29C171.51 4.98 171.76 4.75 172.1 4.58C172.45 4.41 172.83 4.33 173.26 4.33C174.01 4.33 174.57 4.52 174.95 4.9C175.33 5.28 175.52 5.89 175.52 6.73L175.52 11L173.73 11L173.73 7.17C173.73 6.7 173.65 6.35 173.49 6.11C173.33 5.88 173.08 5.76 172.74 5.76C172.3 5.76 171.98 5.91 171.76 6.22C171.54 6.54 171.44 7.03 171.44 7.71L171.44 11Z" />
</svg>