<svg xmlns="http://www.w3.org/2000/svg" viewBox="0 0 17 15" width="17" height="15">
	<style>
		tspan { white-space:pre }
		.shp0 { fill: #e8c300 } 
		.shp1 { opacity: 0.502;fill: #333333 } 
	</style>
	<path id="Layer" fill-rule="evenodd" class="shp0" d="M-197 6C-197 3.1 -194.68 0.75 -191.75 0.75C-188.85 0.75 -186.5 3.1 -186.5 6C-186.5 8.13 -187.24 8.73 -191.23 14.48C-191.48 14.86 -192.05 14.86 -192.3 14.48C-196.29 8.73 -197 8.13 -197 6ZM-189.56 6C-189.56 4.8 -190.55 3.81 -191.75 3.81C-192.98 3.81 -193.94 4.8 -193.94 6C-193.94 7.23 -192.98 8.19 -191.75 8.19C-190.55 8.19 -189.56 7.23 -189.56 6ZM15.39 2.06C15.39 9.09 9.7 14.75 2.7 14.75C2.37 14.75 2.13 14.56 2.04 14.26L1.39 11.41C1.33 11.11 1.47 10.79 1.77 10.65L4.83 9.34C5.1 9.23 5.41 9.31 5.6 9.53L6.97 11.2C9.1 10.18 10.82 8.43 11.81 6.36L10.14 4.99C9.92 4.8 9.84 4.5 9.94 4.22L11.26 1.16C11.4 0.86 11.72 0.7 12.02 0.78L14.87 1.43C15.17 1.52 15.39 1.76 15.39 2.06ZM276.89 6.11L276.89 11.69C276.89 12.43 276.29 13 275.58 13L264.2 13C263.46 13 262.89 12.43 262.89 11.69L262.89 6.11C262.89 5.97 263.03 5.89 263.14 5.97C263.77 6.46 264.56 7.07 267.35 9.09C267.92 9.5 268.91 10.4 269.89 10.4C270.85 10.4 271.86 9.5 272.41 9.09C275.19 7.07 275.99 6.46 276.62 5.97C276.73 5.89 276.89 5.97 276.89 6.11ZM267.87 8.38C264.23 5.75 263.96 5.51 263.14 4.85C262.97 4.74 262.89 4.55 262.89 4.33L262.89 3.81C262.89 3.1 263.46 2.5 264.2 2.5L275.58 2.5C276.29 2.5 276.89 3.1 276.89 3.81L276.89 4.33C276.89 4.55 276.78 4.74 276.62 4.85C275.8 5.51 275.52 5.75 271.89 8.38C271.42 8.71 270.52 9.53 269.89 9.5C269.23 9.53 268.33 8.71 267.87 8.38Z" />
	<path id="Layer" fill-rule="evenodd" class="shp1" d="M-173.55 7.53C-172.72 7.53 -172.06 7.76 -171.58 8.22C-171.08 8.69 -170.84 9.33 -170.84 10.13C-170.84 11.09 -171.13 11.83 -171.72 12.34C-172.31 12.86 -173.16 13.12 -174.25 13.12C-175.21 13.12 -175.98 12.96 -176.56 12.65L-176.56 11.09C-176.25 11.25 -175.89 11.39 -175.48 11.49C-175.07 11.6 -174.69 11.65 -174.32 11.65C-173.21 11.65 -172.66 11.19 -172.66 10.29C-172.66 9.42 -173.23 8.99 -174.38 8.99C-174.58 8.99 -174.81 9.01 -175.06 9.06C-175.31 9.1 -175.52 9.14 -175.67 9.19L-176.39 8.8L-176.07 4.43L-171.42 4.43L-171.42 5.97L-174.48 5.97L-174.64 7.65L-174.44 7.61C-174.2 7.55 -173.9 7.53 -173.55 7.53ZM-166.6 11.69C-166.28 11.69 -165.91 11.63 -165.47 11.49L-165.47 12.82C-165.92 13.02 -166.46 13.12 -167.11 13.12C-167.83 13.12 -168.35 12.94 -168.68 12.58C-169 12.21 -169.16 11.67 -169.16 10.95L-169.16 7.79L-170.02 7.79L-170.02 7.04L-169.03 6.44L-168.52 5.05L-167.38 5.05L-167.38 6.45L-165.54 6.45L-165.54 7.79L-167.38 7.79L-167.38 10.95C-167.38 11.2 -167.3 11.39 -167.16 11.51C-167.02 11.63 -166.83 11.69 -166.6 11.69ZM-158.09 13L-159.88 13L-159.88 9.17C-159.88 8.23 -160.23 7.76 -160.94 7.76C-161.44 7.76 -161.8 7.93 -162.02 8.27C-162.24 8.61 -162.35 9.16 -162.35 9.92L-162.35 13L-164.14 13L-164.14 3.88L-162.35 3.88L-162.35 5.74C-162.35 5.88 -162.37 6.22 -162.39 6.76L-162.44 7.29L-162.34 7.29C-161.94 6.65 -161.31 6.33 -160.44 6.33C-159.67 6.33 -159.09 6.53 -158.69 6.95C-158.29 7.36 -158.09 7.96 -158.09 8.73L-158.09 13ZM-153 13L-153 4.43L-151.18 4.43L-151.18 11.5L-147.71 11.5L-147.71 13L-153 13ZM-140.4 9.71C-140.4 10.78 -140.68 11.61 -141.24 12.21C-141.8 12.82 -142.59 13.12 -143.59 13.12C-144.22 13.12 -144.78 12.98 -145.26 12.71C-145.74 12.43 -146.11 12.03 -146.36 11.52C-146.62 11 -146.75 10.4 -146.75 9.71C-146.75 8.64 -146.47 7.81 -145.91 7.22C-145.35 6.62 -144.57 6.33 -143.56 6.33C-142.93 6.33 -142.37 6.46 -141.89 6.74C-141.41 7.01 -141.04 7.4 -140.79 7.91C-140.53 8.43 -140.4 9.03 -140.4 9.71ZM-144.93 9.71C-144.93 10.36 -144.82 10.85 -144.61 11.18C-144.4 11.52 -144.05 11.68 -143.57 11.68C-143.09 11.68 -142.75 11.52 -142.54 11.19C-142.33 10.86 -142.23 10.37 -142.23 9.71C-142.23 9.06 -142.33 8.58 -142.54 8.25C-142.75 7.93 -143.1 7.77 -143.58 7.77C-144.06 7.77 -144.4 7.93 -144.61 8.25C-144.82 8.57 -144.93 9.06 -144.93 9.71ZM-132.88 13L-134.66 13L-134.66 9.17C-134.66 8.7 -134.75 8.35 -134.91 8.11C-135.08 7.88 -135.35 7.76 -135.72 7.76C-136.22 7.76 -136.58 7.92 -136.8 8.26C-137.02 8.59 -137.13 9.14 -137.13 9.92L-137.13 13L-138.92 13L-138.92 6.45L-137.56 6.45L-137.32 7.29L-137.22 7.29C-137.02 6.97 -136.74 6.73 -136.4 6.57C-136.04 6.41 -135.65 6.33 -135.2 6.33C-134.44 6.33 -133.86 6.53 -133.47 6.95C-133.07 7.36 -132.88 7.95 -132.88 8.73L-132.88 13ZM-128.96 13.12C-129.73 13.12 -130.34 12.82 -130.78 12.22C-131.21 11.62 -131.43 10.79 -131.43 9.74C-131.43 8.66 -131.21 7.83 -130.77 7.23C-130.32 6.63 -129.7 6.33 -128.91 6.33C-128.09 6.33 -127.46 6.65 -127.03 7.29L-126.97 7.29C-127.06 6.8 -127.1 6.36 -127.1 5.98L-127.1 3.88L-125.31 3.88L-125.31 13L-126.68 13L-127.03 12.15L-127.1 12.15C-127.51 12.79 -128.13 13.12 -128.96 13.12ZM-128.33 11.69C-127.88 11.69 -127.54 11.56 -127.33 11.29C-127.12 11.03 -127 10.58 -126.98 9.94L-126.98 9.75C-126.98 9.04 -127.09 8.54 -127.31 8.24C-127.52 7.93 -127.88 7.78 -128.36 7.78C-128.76 7.78 -129.07 7.95 -129.29 8.29C-129.51 8.63 -129.62 9.12 -129.62 9.76C-129.62 10.4 -129.51 10.89 -129.29 11.21C-129.07 11.53 -128.75 11.69 -128.33 11.69ZM-117.49 9.71C-117.49 10.78 -117.77 11.61 -118.33 12.21C-118.89 12.82 -119.68 13.12 -120.68 13.12C-121.31 13.12 -121.87 12.98 -122.35 12.71C-122.83 12.43 -123.2 12.03 -123.45 11.52C-123.71 11 -123.84 10.4 -123.84 9.71C-123.84 8.64 -123.56 7.81 -123 7.22C-122.44 6.62 -121.66 6.33 -120.65 6.33C-120.02 6.33 -119.46 6.46 -118.98 6.74C-118.5 7.01 -118.13 7.4 -117.88 7.91C-117.62 8.43 -117.49 9.03 -117.49 9.71ZM-122.02 9.71C-122.02 10.36 -121.91 10.85 -121.7 11.18C-121.49 11.52 -121.14 11.68 -120.66 11.68C-120.18 11.68 -119.84 11.52 -119.63 11.19C-119.42 10.86 -119.32 10.37 -119.32 9.71C-119.32 9.06 -119.42 8.58 -119.63 8.25C-119.84 7.93 -120.19 7.77 -120.67 7.77C-121.15 7.77 -121.49 7.93 -121.7 8.25C-121.91 8.57 -122.02 9.06 -122.02 9.71ZM-109.96 13L-111.75 13L-111.75 9.17C-111.75 8.7 -111.84 8.35 -112 8.11C-112.17 7.88 -112.44 7.76 -112.81 7.76C-113.31 7.76 -113.67 7.92 -113.89 8.26C-114.11 8.59 -114.22 9.14 -114.22 9.92L-114.22 13L-116.01 13L-116.01 6.45L-114.65 6.45L-114.41 7.29L-114.31 7.29C-114.11 6.97 -113.83 6.73 -113.49 6.57C-113.13 6.41 -112.74 6.33 -112.29 6.33C-111.53 6.33 -110.95 6.53 -110.56 6.95C-110.16 7.36 -109.96 7.95 -109.96 8.73L-109.96 13ZM-104.87 4.43L-102.2 4.43C-100.99 4.43 -100.11 4.61 -99.56 4.96C-99.01 5.3 -98.73 5.85 -98.73 6.6C-98.73 7.11 -98.85 7.53 -99.1 7.86C-99.33 8.19 -99.65 8.39 -100.05 8.45L-100.05 8.51C-99.51 8.63 -99.12 8.86 -98.88 9.19C-98.64 9.52 -98.52 9.96 -98.52 10.52C-98.52 11.3 -98.8 11.91 -99.37 12.34C-99.93 12.78 -100.69 13 -101.66 13L-104.87 13L-104.87 4.43ZM-103.05 7.83L-102 7.83C-101.5 7.83 -101.15 7.75 -100.93 7.6C-100.71 7.45 -100.6 7.19 -100.6 6.84C-100.6 6.51 -100.72 6.28 -100.96 6.14C-101.2 5.99 -101.58 5.92 -102.1 5.92L-103.05 5.92L-103.05 7.83ZM-103.05 9.27L-103.05 11.5L-101.87 11.5C-101.37 11.5 -101 11.4 -100.76 11.21C-100.52 11.02 -100.4 10.73 -100.4 10.33C-100.4 9.62 -100.91 9.27 -101.93 9.27L-103.05 9.27ZM-90.99 9.71C-90.99 10.78 -91.27 11.61 -91.84 12.21C-92.4 12.82 -93.18 13.12 -94.19 13.12C-94.81 13.12 -95.37 12.98 -95.85 12.71C-96.33 12.43 -96.7 12.03 -96.96 11.52C-97.21 11 -97.34 10.4 -97.34 9.71C-97.34 8.64 -97.06 7.81 -96.51 7.22C-95.95 6.62 -95.16 6.33 -94.15 6.33C-93.52 6.33 -92.97 6.46 -92.49 6.74C-92.01 7.01 -91.64 7.4 -91.38 7.91C-91.12 8.43 -90.99 9.03 -90.99 9.71ZM-95.52 9.71C-95.52 10.36 -95.42 10.85 -95.2 11.18C-94.99 11.52 -94.64 11.68 -94.16 11.68C-93.69 11.68 -93.34 11.52 -93.14 11.19C-92.93 10.86 -92.82 10.37 -92.82 9.71C-92.82 9.06 -92.93 8.58 -93.14 8.25C-93.35 7.93 -93.69 7.77 -94.17 7.77C-94.65 7.77 -94.99 7.93 -95.2 8.25C-95.42 8.57 -95.52 9.06 -95.52 9.71ZM-84.88 13L-85.11 12.16L-85.21 12.16C-85.4 12.47 -85.67 12.7 -86.02 12.87C-86.38 13.04 -86.78 13.12 -87.22 13.12C-87.99 13.12 -88.57 12.91 -88.97 12.5C-89.36 12.09 -89.55 11.49 -89.55 10.72L-89.55 6.45L-87.76 6.45L-87.76 10.28C-87.76 10.75 -87.68 11.1 -87.51 11.34C-87.34 11.58 -87.08 11.69 -86.71 11.69C-86.21 11.69 -85.85 11.53 -85.63 11.2C-85.4 10.86 -85.29 10.3 -85.29 9.53L-85.29 6.45L-83.5 6.45L-83.5 13L-84.88 13ZM-79.84 13L-81.63 13L-81.63 3.88L-79.84 3.88L-79.84 13ZM-75 13.12C-76.05 13.12 -76.88 12.83 -77.47 12.24C-78.06 11.66 -78.36 10.84 -78.36 9.77C-78.36 8.67 -78.09 7.83 -77.54 7.23C-76.99 6.63 -76.23 6.33 -75.26 6.33C-74.33 6.33 -73.61 6.59 -73.1 7.12C-72.58 7.64 -72.32 8.37 -72.32 9.3L-72.32 10.17L-76.55 10.17C-76.53 10.68 -76.38 11.07 -76.1 11.36C-75.82 11.64 -75.42 11.79 -74.91 11.79C-74.52 11.79 -74.15 11.75 -73.8 11.66C-73.44 11.58 -73.08 11.45 -72.69 11.27L-72.69 12.65C-73.01 12.81 -73.34 12.93 -73.69 13C-74.05 13.08 -74.48 13.12 -75 13.12ZM-75.25 7.6C-75.63 7.6 -75.92 7.72 -76.14 7.96C-76.35 8.2 -76.48 8.54 -76.51 8.98L-74 8.98C-74.01 8.54 -74.12 8.2 -74.35 7.96C-74.57 7.72 -74.87 7.6 -75.25 7.6ZM-69.31 13L-71.81 6.45L-69.94 6.45L-68.67 10.18C-68.53 10.65 -68.44 11.1 -68.41 11.52L-68.38 11.52C-68.35 11.15 -68.27 10.7 -68.11 10.18L-66.85 6.45L-64.98 6.45L-67.48 13L-69.31 13ZM-59.88 13L-60.22 12.11L-60.27 12.11C-60.57 12.49 -60.88 12.75 -61.2 12.9C-61.52 13.04 -61.93 13.12 -62.44 13.12C-63.07 13.12 -63.57 12.94 -63.93 12.58C-64.29 12.22 -64.47 11.71 -64.47 11.04C-64.47 10.35 -64.23 9.84 -63.75 9.51C-63.26 9.18 -62.52 8.99 -61.54 8.96L-60.41 8.92L-60.41 8.63C-60.41 7.97 -60.75 7.64 -61.43 7.64C-61.95 7.64 -62.56 7.8 -63.27 8.11L-63.86 6.91C-63.11 6.51 -62.27 6.31 -61.35 6.31C-60.48 6.31 -59.8 6.51 -59.33 6.89C-58.87 7.27 -58.63 7.85 -58.63 8.63L-58.63 13L-59.88 13ZM-60.41 9.96L-61.1 9.99C-61.62 10 -62 10.1 -62.26 10.27C-62.51 10.44 -62.64 10.7 -62.64 11.05C-62.64 11.56 -62.35 11.81 -61.77 11.81C-61.36 11.81 -61.03 11.69 -60.78 11.45C-60.53 11.21 -60.41 10.9 -60.41 10.5L-60.41 9.96ZM-53.13 6.33C-52.89 6.33 -52.69 6.34 -52.53 6.38L-52.66 8.05C-52.81 8.02 -52.98 8 -53.19 8C-53.76 8 -54.2 8.14 -54.52 8.44C-54.84 8.73 -55 9.14 -55 9.67L-55 13L-56.78 13L-56.78 6.45L-55.43 6.45L-55.17 7.55L-55.08 7.55C-54.88 7.18 -54.6 6.89 -54.26 6.67C-53.91 6.44 -53.53 6.33 -53.13 6.33ZM-49.26 13.12C-50.03 13.12 -50.64 12.82 -51.08 12.22C-51.52 11.62 -51.73 10.79 -51.73 9.74C-51.73 8.66 -51.51 7.83 -51.07 7.23C-50.62 6.63 -50 6.33 -49.22 6.33C-48.39 6.33 -47.76 6.65 -47.33 7.29L-47.27 7.29C-47.36 6.8 -47.4 6.36 -47.4 5.98L-47.4 3.88L-45.61 3.88L-45.61 13L-46.98 13L-47.33 12.15L-47.4 12.15C-47.81 12.79 -48.43 13.12 -49.26 13.12ZM-48.63 11.69C-48.18 11.69 -47.84 11.56 -47.63 11.29C-47.42 11.03 -47.3 10.58 -47.28 9.94L-47.28 9.75C-47.28 9.04 -47.39 8.54 -47.61 8.24C-47.82 7.93 -48.18 7.78 -48.66 7.78C-49.06 7.78 -49.37 7.95 -49.6 8.29C-49.81 8.63 -49.92 9.12 -49.92 9.76C-49.92 10.4 -49.81 10.89 -49.59 11.21C-49.37 11.53 -49.05 11.69 -48.63 11.69ZM-41.99 11.74C-42.19 12.53 -42.54 13.46 -43.02 14.55L-44.31 14.55C-44.06 13.51 -43.86 12.53 -43.72 11.61L-42.08 11.61L-41.99 11.74ZM-30.03 4.43L-30.03 9.98C-30.03 10.61 -30.17 11.16 -30.46 11.64C-30.74 12.12 -31.15 12.48 -31.68 12.74C-32.22 12.99 -32.85 13.12 -33.58 13.12C-34.68 13.12 -35.54 12.84 -36.15 12.27C-36.76 11.71 -37.06 10.93 -37.06 9.95L-37.06 4.43L-35.25 4.43L-35.25 9.68C-35.25 10.34 -35.12 10.82 -34.85 11.13C-34.59 11.44 -34.15 11.59 -33.53 11.59C-32.94 11.59 -32.51 11.44 -32.25 11.13C-31.98 10.82 -31.84 10.33 -31.84 9.67L-31.84 4.43L-30.03 4.43ZM-28.33 12.16C-28.33 11.83 -28.24 11.59 -28.06 11.42C-27.89 11.25 -27.63 11.17 -27.29 11.17C-26.97 11.17 -26.72 11.25 -26.54 11.42C-26.37 11.6 -26.28 11.84 -26.28 12.16C-26.28 12.47 -26.37 12.71 -26.54 12.89C-26.72 13.07 -26.97 13.16 -27.29 13.16C-27.62 13.16 -27.88 13.07 -28.06 12.9C-28.24 12.72 -28.33 12.48 -28.33 12.16ZM-17.62 13L-19.68 13L-21.93 9.39L-22.69 9.94L-22.69 13L-24.51 13L-24.51 4.43L-22.69 4.43L-22.69 8.35L-21.98 7.35L-19.66 4.43L-17.65 4.43L-20.63 8.22L-17.62 13ZM-16.94 12.16C-16.94 11.83 -16.85 11.59 -16.67 11.42C-16.5 11.25 -16.24 11.17 -15.9 11.17C-15.58 11.17 -15.33 11.25 -15.15 11.42C-14.97 11.6 -14.88 11.84 -14.88 12.16C-14.88 12.47 -14.97 12.71 -15.15 12.89C-15.33 13.07 -15.58 13.16 -15.9 13.16C-16.23 13.16 -16.49 13.07 -16.67 12.9C-16.85 12.72 -16.94 12.48 -16.94 12.16ZM61.9 9.41L59.63 9.41L59.63 8.13L61.9 8.13L61.9 5.85L63.18 5.85L63.18 8.13L65.45 8.13L65.45 9.41L63.18 9.41L63.18 11.67L61.9 11.67L61.9 9.41ZM72.63 11.22L71.6 11.22L71.6 13L69.83 13L69.83 11.22L66.17 11.22L66.17 9.96L69.93 4.43L71.6 4.43L71.6 9.82L72.63 9.82L72.63 11.22ZM69.83 9.82L69.83 8.37C69.83 8.12 69.84 7.77 69.86 7.31C69.88 6.85 69.89 6.58 69.91 6.51L69.86 6.51C69.71 6.83 69.54 7.14 69.34 7.45L67.77 9.82L69.83 9.82ZM79.25 8.72C79.25 10.21 79 11.32 78.51 12.04C78.02 12.76 77.27 13.12 76.25 13.12C75.26 13.12 74.51 12.75 74.01 12C73.51 11.26 73.26 10.17 73.26 8.72C73.26 7.21 73.5 6.09 73.99 5.38C74.48 4.66 75.23 4.3 76.25 4.3C77.23 4.3 77.98 4.67 78.48 5.42C78.99 6.17 79.25 7.27 79.25 8.72ZM75.06 8.72C75.06 9.77 75.15 10.52 75.33 10.98C75.51 11.43 75.82 11.66 76.25 11.66C76.67 11.66 76.97 11.43 77.16 10.97C77.35 10.51 77.44 9.76 77.44 8.72C77.44 7.67 77.35 6.91 77.15 6.46C76.97 5.99 76.66 5.76 76.25 5.76C75.82 5.76 75.52 5.99 75.33 6.46C75.15 6.91 75.06 7.67 75.06 8.72ZM84.13 13L87.34 5.97L83.12 5.97L83.12 4.45L89.27 4.45L89.27 5.58L86.02 13L84.13 13ZM96.12 13L90.13 13L90.13 11.74L92.28 9.57C92.92 8.91 93.34 8.46 93.53 8.21C93.73 7.96 93.87 7.72 93.95 7.51C94.04 7.29 94.08 7.07 94.08 6.84C94.08 6.5 93.99 6.24 93.8 6.07C93.61 5.91 93.36 5.82 93.04 5.82C92.71 5.82 92.38 5.9 92.07 6.05C91.76 6.2 91.43 6.42 91.09 6.7L90.11 5.54C90.53 5.18 90.88 4.92 91.16 4.77C91.44 4.63 91.74 4.51 92.07 4.43C92.39 4.35 92.76 4.31 93.17 4.31C93.7 4.31 94.18 4.41 94.59 4.6C95 4.8 95.31 5.07 95.54 5.42C95.77 5.78 95.88 6.18 95.88 6.63C95.88 7.03 95.81 7.4 95.67 7.74C95.53 8.09 95.32 8.44 95.02 8.8C94.74 9.17 94.23 9.69 93.49 10.36L92.39 11.39L92.39 11.48L96.12 11.48L96.12 13ZM102.94 8.09C102.94 9.78 102.59 11.04 101.88 11.87C101.16 12.7 100.09 13.12 98.65 13.12C98.14 13.12 97.75 13.09 97.49 13.04L97.49 11.58C97.82 11.66 98.16 11.71 98.52 11.71C99.13 11.71 99.63 11.62 100.02 11.44C100.41 11.26 100.71 10.98 100.91 10.6C101.12 10.22 101.24 9.7 101.27 9.03L101.2 9.03C100.98 9.39 100.71 9.65 100.42 9.8C100.12 9.95 99.75 10.02 99.3 10.02C98.56 10.02 97.97 9.79 97.54 9.31C97.11 8.83 96.89 8.16 96.89 7.31C96.89 6.39 97.15 5.67 97.67 5.14C98.2 4.6 98.91 4.33 99.81 4.33C100.44 4.33 100.99 4.48 101.46 4.78C101.94 5.08 102.31 5.51 102.56 6.07C102.81 6.64 102.94 7.31 102.94 8.09ZM99.84 5.79C99.47 5.79 99.17 5.92 98.96 6.17C98.75 6.43 98.65 6.8 98.65 7.29C98.65 7.7 98.74 8.03 98.93 8.27C99.13 8.51 99.42 8.63 99.81 8.63C100.17 8.63 100.49 8.52 100.75 8.28C101.01 8.04 101.14 7.76 101.14 7.45C101.14 6.98 101.02 6.59 100.77 6.27C100.53 5.95 100.22 5.79 99.84 5.79ZM111.44 13L109.63 13L109.63 8.04L109.64 7.23L109.67 6.34C109.37 6.64 109.16 6.84 109.05 6.93L108.06 7.72L107.19 6.63L109.95 4.43L111.44 4.43L111.44 13ZM119.47 6.35C119.47 6.88 119.31 7.34 118.98 7.71C118.66 8.09 118.2 8.35 117.62 8.49L117.62 8.52C118.31 8.61 118.83 8.82 119.19 9.16C119.55 9.49 119.72 9.94 119.72 10.5C119.72 11.33 119.42 11.97 118.83 12.43C118.23 12.89 117.38 13.12 116.27 13.12C115.34 13.12 114.51 12.96 113.79 12.65L113.79 11.11C114.13 11.28 114.49 11.42 114.89 11.52C115.29 11.63 115.68 11.68 116.07 11.68C116.67 11.68 117.11 11.58 117.4 11.38C117.68 11.17 117.82 10.85 117.82 10.4C117.82 10 117.66 9.71 117.33 9.54C117 9.38 116.48 9.29 115.76 9.29L115.11 9.29L115.11 7.9L115.77 7.9C116.44 7.9 116.92 7.82 117.23 7.64C117.54 7.47 117.69 7.17 117.69 6.75C117.69 6.1 117.28 5.78 116.47 5.78C116.19 5.78 115.9 5.82 115.61 5.92C115.32 6.01 115 6.17 114.64 6.4L113.81 5.15C114.59 4.59 115.52 4.31 116.6 4.31C117.49 4.31 118.19 4.49 118.7 4.85C119.21 5.21 119.47 5.71 119.47 6.35ZM125.15 13L123.34 13L123.34 8.04L123.36 7.23L123.38 6.34C123.08 6.64 122.88 6.84 122.76 6.93L121.77 7.72L120.9 6.63L123.66 4.43L125.15 4.43L125.15 13ZM130.59 9.36C130.59 7.67 130.94 6.4 131.66 5.58C132.38 4.75 133.45 4.33 134.88 4.33C135.37 4.33 135.75 4.36 136.03 4.42L136.03 5.87C135.68 5.79 135.34 5.75 135 5.75C134.38 5.75 133.87 5.85 133.48 6.03C133.08 6.22 132.79 6.5 132.6 6.87C132.4 7.23 132.29 7.75 132.25 8.43L132.33 8.43C132.71 7.77 133.33 7.43 134.18 7.43C134.95 7.43 135.55 7.67 135.98 8.15C136.42 8.63 136.63 9.3 136.63 10.15C136.63 11.06 136.38 11.79 135.86 12.32C135.34 12.85 134.63 13.12 133.71 13.12C133.08 13.12 132.53 12.97 132.06 12.68C131.59 12.38 131.23 11.96 130.97 11.39C130.71 10.83 130.59 10.15 130.59 9.36ZM133.68 11.67C134.07 11.67 134.36 11.54 134.57 11.28C134.78 11.02 134.88 10.65 134.88 10.17C134.88 9.75 134.78 9.42 134.59 9.19C134.4 8.94 134.11 8.82 133.71 8.82C133.35 8.82 133.03 8.94 132.77 9.18C132.51 9.42 132.38 9.7 132.38 10.01C132.38 10.48 132.51 10.87 132.75 11.19C132.99 11.51 133.31 11.67 133.68 11.67ZM143.15 6.35C143.15 6.88 142.99 7.34 142.67 7.71C142.34 8.09 141.89 8.35 141.3 8.49L141.3 8.52C141.99 8.61 142.52 8.82 142.87 9.16C143.23 9.49 143.41 9.94 143.41 10.5C143.41 11.33 143.11 11.97 142.51 12.43C141.91 12.89 141.06 13.12 139.95 13.12C139.02 13.12 138.19 12.96 137.48 12.65L137.48 11.11C137.81 11.28 138.17 11.42 138.57 11.52C138.97 11.63 139.37 11.68 139.76 11.68C140.35 11.68 140.8 11.58 141.08 11.38C141.37 11.17 141.51 10.85 141.51 10.4C141.51 10 141.34 9.71 141.02 9.54C140.69 9.38 140.16 9.29 139.44 9.29L138.8 9.29L138.8 7.9L139.46 7.9C140.12 7.9 140.61 7.82 140.91 7.64C141.22 7.47 141.37 7.17 141.37 6.75C141.37 6.1 140.97 5.78 140.15 5.78C139.87 5.78 139.59 5.82 139.29 5.92C139 6.01 138.68 6.17 138.33 6.4L137.49 5.15C138.27 4.59 139.2 4.31 140.28 4.31C141.17 4.31 141.87 4.49 142.38 4.85C142.9 5.21 143.15 5.71 143.15 6.35ZM145.2 13L148.42 5.97L144.2 5.97L144.2 4.45L150.34 4.45L150.34 5.58L147.1 13L145.2 13ZM155.63 4.43L152.44 13L150.81 13L154.01 4.43L155.63 4.43ZM158.47 9.41L156.2 9.41L156.2 8.13L158.47 8.13L158.47 5.85L159.75 5.85L159.75 8.13L162.02 8.13L162.02 9.41L159.75 9.41L159.75 11.67L158.47 11.67L158.47 9.41ZM169.2 11.22L168.17 11.22L168.17 13L166.4 13L166.4 11.22L162.75 11.22L162.75 9.96L166.5 4.43L168.17 4.43L168.17 9.82L169.2 9.82L169.2 11.22ZM166.4 9.82L166.4 8.37C166.4 8.12 166.41 7.77 166.43 7.31C166.45 6.85 166.47 6.58 166.48 6.51L166.43 6.51C166.29 6.83 166.12 7.14 165.91 7.45L164.34 9.82L166.4 9.82ZM175.82 8.72C175.82 10.21 175.57 11.32 175.08 12.04C174.59 12.76 173.84 13.12 172.82 13.12C171.83 13.12 171.09 12.75 170.58 12C170.08 11.26 169.83 10.17 169.83 8.72C169.83 7.21 170.08 6.09 170.56 5.38C171.05 4.66 171.81 4.3 172.82 4.3C173.81 4.3 174.56 4.67 175.06 5.42C175.57 6.17 175.82 7.27 175.82 8.72ZM171.63 8.72C171.63 9.77 171.72 10.52 171.9 10.98C172.08 11.43 172.39 11.66 172.82 11.66C173.24 11.66 173.55 11.43 173.73 10.97C173.92 10.51 174.02 9.76 174.02 8.72C174.02 7.67 173.92 6.91 173.73 6.46C173.54 5.99 173.24 5.76 172.82 5.76C172.39 5.76 172.09 5.99 171.91 6.46C171.72 6.91 171.63 7.67 171.63 8.72ZM180.7 13L183.92 5.97L179.69 5.97L179.69 4.45L185.84 4.45L185.84 5.58L182.6 13L180.7 13ZM192.69 13L186.71 13L186.71 11.74L188.86 9.57C189.49 8.91 189.91 8.46 190.11 8.21C190.3 7.96 190.44 7.72 190.53 7.51C190.61 7.29 190.66 7.07 190.66 6.84C190.66 6.5 190.56 6.24 190.37 6.07C190.18 5.91 189.93 5.82 189.61 5.82C189.28 5.82 188.96 5.9 188.65 6.05C188.33 6.2 188.01 6.42 187.67 6.7L186.68 5.54C187.11 5.18 187.45 4.92 187.73 4.77C188.01 4.63 188.31 4.51 188.64 4.43C188.97 4.35 189.34 4.31 189.74 4.31C190.28 4.31 190.75 4.41 191.16 4.6C191.57 4.8 191.89 5.07 192.12 5.42C192.34 5.78 192.45 6.18 192.45 6.63C192.45 7.03 192.38 7.4 192.24 7.74C192.11 8.09 191.89 8.44 191.6 8.8C191.31 9.17 190.8 9.69 190.06 10.36L188.96 11.39L188.96 11.48L192.69 11.48L192.69 13ZM193.5 9.36C193.5 7.67 193.86 6.4 194.58 5.58C195.3 4.75 196.37 4.33 197.8 4.33C198.29 4.33 198.67 4.36 198.95 4.42L198.95 5.87C198.6 5.79 198.26 5.75 197.92 5.75C197.3 5.75 196.79 5.85 196.39 6.03C196 6.22 195.71 6.5 195.51 6.87C195.32 7.23 195.2 7.75 195.17 8.43L195.24 8.43C195.63 7.77 196.25 7.43 197.1 7.43C197.87 7.43 198.47 7.67 198.9 8.15C199.33 8.63 199.55 9.3 199.55 10.15C199.55 11.06 199.29 11.79 198.78 12.32C198.26 12.85 197.55 13.12 196.63 13.12C196 13.12 195.45 12.97 194.98 12.68C194.51 12.38 194.14 11.96 193.88 11.39C193.63 10.83 193.5 10.15 193.5 9.36ZM196.6 11.67C196.98 11.67 197.28 11.54 197.49 11.28C197.69 11.02 197.8 10.65 197.8 10.17C197.8 9.75 197.7 9.42 197.51 9.19C197.31 8.94 197.02 8.82 196.63 8.82C196.27 8.82 195.95 8.94 195.69 9.18C195.43 9.42 195.3 9.7 195.3 10.01C195.3 10.48 195.42 10.87 195.67 11.19C195.91 11.51 196.22 11.67 196.6 11.67ZM209.72 11.22L208.69 11.22L208.69 13L206.92 13L206.92 11.22L203.26 11.22L203.26 9.96L207.02 4.43L208.69 4.43L208.69 9.82L209.72 9.82L209.72 11.22ZM206.92 9.82L206.92 8.37C206.92 8.12 206.93 7.77 206.94 7.31C206.96 6.85 206.98 6.58 206.99 6.51L206.94 6.51C206.8 6.83 206.63 7.14 206.42 7.45L204.85 9.82L206.92 9.82ZM213.51 7.53C214.34 7.53 214.99 7.76 215.48 8.22C215.98 8.69 216.22 9.33 216.22 10.13C216.22 11.09 215.93 11.83 215.34 12.34C214.75 12.86 213.9 13.12 212.81 13.12C211.85 13.12 211.08 12.96 210.5 12.65L210.5 11.09C210.81 11.25 211.16 11.39 211.57 11.49C211.98 11.6 212.37 11.65 212.74 11.65C213.85 11.65 214.4 11.19 214.4 10.29C214.4 9.42 213.83 8.99 212.68 8.99C212.48 8.99 212.25 9.01 212 9.06C211.75 9.1 211.54 9.14 211.39 9.19L210.67 8.8L210.99 4.43L215.63 4.43L215.63 5.97L212.58 5.97L212.42 7.65L212.62 7.61C212.86 7.55 213.16 7.53 213.51 7.53ZM220.2 4.32C221.02 4.32 221.68 4.51 222.18 4.88C222.68 5.26 222.94 5.76 222.94 6.39C222.94 6.83 222.81 7.22 222.57 7.56C222.33 7.9 221.94 8.21 221.4 8.48C222.04 8.82 222.5 9.18 222.78 9.55C223.06 9.93 223.2 10.33 223.2 10.78C223.2 11.48 222.92 12.05 222.37 12.48C221.82 12.9 221.1 13.12 220.2 13.12C219.26 13.12 218.52 12.92 217.99 12.52C217.45 12.12 217.19 11.56 217.19 10.83C217.19 10.34 217.32 9.9 217.57 9.53C217.84 9.15 218.25 8.81 218.83 8.52C218.34 8.21 217.99 7.88 217.77 7.53C217.56 7.18 217.45 6.8 217.45 6.38C217.45 5.77 217.7 5.27 218.21 4.89C218.72 4.51 219.38 4.32 220.2 4.32ZM218.86 10.72C218.86 11.06 218.98 11.32 219.21 11.51C219.45 11.69 219.77 11.79 220.18 11.79C220.63 11.79 220.96 11.69 221.18 11.5C221.41 11.3 221.52 11.05 221.52 10.73C221.52 10.47 221.41 10.23 221.18 10C220.96 9.77 220.61 9.53 220.11 9.27C219.28 9.65 218.86 10.13 218.86 10.72ZM220.19 5.65C219.88 5.65 219.63 5.73 219.44 5.89C219.25 6.04 219.16 6.25 219.16 6.52C219.16 6.75 219.23 6.96 219.38 7.15C219.53 7.34 219.81 7.53 220.2 7.72C220.58 7.54 220.85 7.36 221 7.17C221.15 6.98 221.23 6.77 221.23 6.52C221.23 6.25 221.13 6.04 220.94 5.88C220.74 5.72 220.49 5.65 220.19 5.65ZM228.07 13L231.29 5.97L227.06 5.97L227.06 4.45L233.21 4.45L233.21 5.58L229.97 13L228.07 13ZM237.03 4.32C237.85 4.32 238.51 4.51 239.01 4.88C239.51 5.26 239.76 5.76 239.76 6.39C239.76 6.83 239.64 7.22 239.4 7.56C239.16 7.9 238.77 8.21 238.23 8.48C238.87 8.82 239.33 9.18 239.61 9.55C239.89 9.93 240.03 10.33 240.03 10.78C240.03 11.48 239.75 12.05 239.2 12.48C238.65 12.9 237.93 13.12 237.03 13.12C236.09 13.12 235.35 12.92 234.82 12.52C234.28 12.12 234.02 11.56 234.02 10.83C234.02 10.34 234.14 9.9 234.4 9.53C234.66 9.15 235.08 8.81 235.66 8.52C235.17 8.21 234.82 7.88 234.6 7.53C234.39 7.18 234.28 6.8 234.28 6.38C234.28 5.77 234.53 5.27 235.04 4.89C235.55 4.51 236.21 4.32 237.03 4.32ZM235.69 10.72C235.69 11.06 235.81 11.32 236.04 11.51C236.28 11.69 236.6 11.79 237 11.79C237.45 11.79 237.79 11.69 238.01 11.5C238.23 11.3 238.35 11.05 238.35 10.73C238.35 10.47 238.23 10.23 238.01 10C237.79 9.77 237.44 9.53 236.94 9.27C236.11 9.65 235.69 10.13 235.69 10.72ZM237.02 5.65C236.71 5.65 236.46 5.73 236.27 5.89C236.08 6.04 235.98 6.25 235.98 6.52C235.98 6.75 236.06 6.96 236.21 7.15C236.36 7.34 236.63 7.53 237.03 7.72C237.41 7.54 237.68 7.36 237.83 7.17C237.98 6.98 238.06 6.77 238.06 6.52C238.06 6.25 237.96 6.04 237.77 5.88C237.57 5.72 237.32 5.65 237.02 5.65ZM246.92 13L240.93 13L240.93 11.74L243.08 9.57C243.72 8.91 244.13 8.46 244.33 8.21C244.52 7.96 244.66 7.72 244.75 7.51C244.84 7.29 244.88 7.07 244.88 6.84C244.88 6.5 244.78 6.24 244.59 6.07C244.4 5.91 244.15 5.82 243.84 5.82C243.5 5.82 243.18 5.9 242.87 6.05C242.56 6.2 242.23 6.42 241.89 6.7L240.91 5.54C241.33 5.18 241.68 4.92 241.95 4.77C242.23 4.63 242.54 4.51 242.86 4.43C243.19 4.35 243.56 4.31 243.96 4.31C244.5 4.31 244.97 4.41 245.38 4.6C245.79 4.8 246.11 5.07 246.34 5.42C246.56 5.78 246.68 6.18 246.68 6.63C246.68 7.03 246.61 7.4 246.47 7.74C246.33 8.09 246.12 8.44 245.82 8.8C245.53 9.17 245.02 9.69 244.29 10.36L243.19 11.39L243.19 11.48L246.92 11.48L246.92 13ZM302.51 9.71C302.51 10.78 302.23 11.61 301.66 12.21C301.1 12.82 300.32 13.12 299.31 13.12C298.69 13.12 298.13 12.98 297.65 12.71C297.17 12.43 296.8 12.03 296.54 11.52C296.29 11 296.16 10.4 296.16 9.71C296.16 8.64 296.44 7.81 296.99 7.22C297.55 6.62 298.34 6.33 299.35 6.33C299.98 6.33 300.53 6.46 301.01 6.74C301.49 7.01 301.86 7.4 302.12 7.91C302.38 8.43 302.51 9.03 302.51 9.71ZM297.98 9.71C297.98 10.36 298.08 10.85 298.3 11.18C298.51 11.52 298.86 11.68 299.34 11.68C299.81 11.68 300.16 11.52 300.36 11.19C300.57 10.86 300.68 10.37 300.68 9.71C300.68 9.06 300.57 8.58 300.36 8.25C300.15 7.93 299.81 7.77 299.33 7.77C298.85 7.77 298.51 7.93 298.3 8.25C298.08 8.57 297.98 9.06 297.98 9.71ZM307.61 7.79L306.06 7.79L306.06 13L304.27 13L304.27 7.79L303.29 7.79L303.29 6.93L304.27 6.45L304.27 5.97C304.27 5.22 304.45 4.68 304.82 4.33C305.19 3.99 305.78 3.82 306.59 3.82C307.2 3.82 307.75 3.91 308.23 4.09L307.77 5.41C307.42 5.29 307.08 5.24 306.78 5.24C306.52 5.24 306.34 5.31 306.23 5.46C306.12 5.61 306.06 5.8 306.06 6.04L306.06 6.45L307.61 6.45L307.61 7.79ZM312.25 7.79L310.7 7.79L310.7 13L308.92 13L308.92 7.79L307.93 7.79L307.93 6.93L308.92 6.45L308.92 5.97C308.92 5.22 309.1 4.68 309.47 4.33C309.84 3.99 310.42 3.82 311.23 3.82C311.85 3.82 312.4 3.91 312.88 4.09L312.42 5.41C312.06 5.29 311.73 5.24 311.43 5.24C311.17 5.24 310.99 5.31 310.88 5.46C310.76 5.61 310.7 5.8 310.7 6.04L310.7 6.45L312.25 6.45L312.25 7.79ZM313.18 4.76C313.18 4.17 313.51 3.88 314.16 3.88C314.81 3.88 315.13 4.17 315.13 4.76C315.13 5.03 315.05 5.25 314.88 5.41C314.72 5.56 314.48 5.63 314.16 5.63C313.51 5.63 313.18 5.34 313.18 4.76ZM315.05 13L313.26 13L313.26 6.45L315.05 6.45L315.05 13ZM319.58 13.12C317.54 13.12 316.52 12 316.52 9.76C316.52 8.65 316.8 7.8 317.36 7.21C317.91 6.62 318.71 6.33 319.74 6.33C320.5 6.33 321.18 6.47 321.78 6.77L321.25 8.15C320.97 8.04 320.71 7.95 320.47 7.88C320.23 7.8 319.98 7.77 319.74 7.77C318.81 7.77 318.35 8.43 318.35 9.75C318.35 11.03 318.81 11.67 319.74 11.67C320.08 11.67 320.4 11.63 320.7 11.54C320.99 11.44 321.28 11.3 321.57 11.1L321.57 12.63C321.28 12.81 320.99 12.94 320.7 13.01C320.4 13.08 320.03 13.12 319.58 13.12ZM326.06 13.12C325.01 13.12 324.18 12.83 323.59 12.24C323 11.66 322.7 10.84 322.7 9.77C322.7 8.67 322.97 7.83 323.52 7.23C324.07 6.63 324.83 6.33 325.8 6.33C326.73 6.33 327.45 6.59 327.96 7.12C328.48 7.64 328.73 8.37 328.73 9.3L328.73 10.17L324.51 10.17C324.53 10.68 324.68 11.07 324.96 11.36C325.24 11.64 325.64 11.79 326.14 11.79C326.54 11.79 326.91 11.75 327.26 11.66C327.62 11.58 327.98 11.45 328.37 11.27L328.37 12.65C328.05 12.81 327.72 12.93 327.36 13C327.01 13.08 326.57 13.12 326.06 13.12ZM325.81 7.6C325.43 7.6 325.13 7.72 324.92 7.96C324.71 8.2 324.58 8.54 324.55 8.98L327.06 8.98C327.05 8.54 326.94 8.2 326.71 7.96C326.49 7.72 326.19 7.6 325.81 7.6ZM339.42 8.59C339.42 9.16 339.33 9.67 339.15 10.14C338.97 10.61 338.71 10.97 338.38 11.24C338.06 11.5 337.68 11.63 337.24 11.63C336.95 11.63 336.7 11.57 336.48 11.43C336.25 11.29 336.09 11.11 335.99 10.88L335.9 10.88C335.48 11.38 334.94 11.63 334.29 11.63C333.6 11.63 333.05 11.43 332.65 11.01C332.26 10.6 332.06 10.03 332.06 9.3C332.06 8.48 332.32 7.81 332.84 7.31C333.37 6.81 334.05 6.55 334.89 6.55C335.23 6.55 335.6 6.59 336 6.65C336.41 6.72 336.74 6.79 337 6.88L336.87 9.75C336.87 10.29 337.02 10.56 337.31 10.56C337.56 10.56 337.76 10.38 337.91 10.02C338.06 9.65 338.13 9.17 338.13 8.58C338.13 7.95 338 7.4 337.74 6.92C337.48 6.43 337.11 6.06 336.63 5.81C336.16 5.56 335.62 5.43 335.01 5.43C334.22 5.43 333.53 5.59 332.95 5.92C332.37 6.24 331.92 6.71 331.61 7.32C331.3 7.93 331.15 8.64 331.15 9.44C331.15 10.52 331.44 11.34 332.01 11.92C332.59 12.5 333.42 12.78 334.52 12.78C334.93 12.78 335.39 12.74 335.88 12.65C336.38 12.55 336.87 12.42 337.35 12.24L337.35 13.37C336.51 13.72 335.58 13.9 334.56 13.9C333.08 13.9 331.92 13.51 331.09 12.73C330.26 11.95 329.85 10.86 329.85 9.47C329.85 8.51 330.06 7.63 330.48 6.85C330.91 6.06 331.51 5.44 332.29 5C333.08 4.55 333.98 4.32 335 4.32C335.86 4.32 336.63 4.5 337.3 4.85C337.98 5.2 338.5 5.7 338.87 6.35C339.23 7 339.42 7.75 339.42 8.59ZM333.42 9.33C333.42 10.15 333.75 10.56 334.42 10.56C334.77 10.56 335.04 10.44 335.23 10.19C335.41 9.94 335.52 9.54 335.56 8.98L335.64 7.69C335.44 7.64 335.21 7.62 334.96 7.62C334.48 7.62 334.09 7.77 333.82 8.08C333.55 8.38 333.42 8.8 333.42 9.33ZM346.82 13L345.03 13L345.03 9.17C345.03 8.7 344.96 8.35 344.79 8.11C344.64 7.88 344.39 7.76 344.05 7.76C343.59 7.76 343.26 7.92 343.05 8.26C342.85 8.6 342.74 9.15 342.74 9.92L342.74 13L340.96 13L340.96 6.45L342.32 6.45L342.56 7.29L342.66 7.29C342.84 6.99 343.09 6.75 343.42 6.58C343.76 6.41 344.14 6.33 344.57 6.33C345.55 6.33 346.21 6.65 346.56 7.29L346.72 7.29C346.89 6.98 347.15 6.75 347.49 6.58C347.83 6.41 348.22 6.33 348.65 6.33C349.39 6.33 349.95 6.52 350.33 6.9C350.72 7.28 350.91 7.89 350.91 8.73L350.91 13L349.11 13L349.11 9.17C349.11 8.7 349.03 8.35 348.87 8.11C348.72 7.88 348.47 7.76 348.13 7.76C347.69 7.76 347.36 7.91 347.14 8.22C346.93 8.54 346.82 9.03 346.82 9.71L346.82 13ZM352.67 4.76C352.67 4.17 352.99 3.88 353.64 3.88C354.29 3.88 354.62 4.17 354.62 4.76C354.62 5.03 354.53 5.25 354.37 5.41C354.21 5.56 353.97 5.63 353.64 5.63C352.99 5.63 352.67 5.34 352.67 4.76ZM354.53 13L352.75 13L352.75 6.45L354.53 6.45L354.53 13ZM362.46 13L360.67 13L360.67 9.17C360.67 8.7 360.59 8.35 360.42 8.11C360.25 7.88 359.99 7.76 359.62 7.76C359.12 7.76 358.76 7.92 358.53 8.26C358.31 8.59 358.2 9.14 358.2 9.92L358.2 13L356.41 13L356.41 6.45L357.78 6.45L358.02 7.29L358.12 7.29C358.32 6.97 358.59 6.73 358.94 6.57C359.29 6.41 359.69 6.33 360.13 6.33C360.9 6.33 361.48 6.53 361.87 6.95C362.26 7.36 362.46 7.95 362.46 8.73L362.46 13ZM366.38 13.12C365.61 13.12 365 12.82 364.56 12.22C364.12 11.62 363.9 10.79 363.9 9.74C363.9 8.66 364.13 7.83 364.57 7.23C365.02 6.63 365.64 6.33 366.42 6.33C367.25 6.33 367.88 6.65 368.31 7.29L368.37 7.29C368.28 6.8 368.23 6.36 368.23 5.98L368.23 3.88L370.02 3.88L370.02 13L368.65 13L368.31 12.15L368.23 12.15C367.83 12.79 367.21 13.12 366.38 13.12ZM367 11.69C367.46 11.69 367.79 11.56 368 11.29C368.22 11.03 368.34 10.58 368.36 9.94L368.36 9.75C368.36 9.04 368.25 8.54 368.03 8.24C367.81 7.93 367.46 7.78 366.97 7.78C366.57 7.78 366.26 7.95 366.04 8.29C365.82 8.63 365.71 9.12 365.71 9.76C365.71 10.4 365.82 10.89 366.05 11.21C366.27 11.53 366.59 11.69 367 11.69ZM375.54 6.33C376.31 6.33 376.92 6.63 377.36 7.23C377.79 7.84 378.01 8.66 378.01 9.71C378.01 10.79 377.78 11.63 377.33 12.23C376.88 12.82 376.27 13.12 375.49 13.12C374.72 13.12 374.12 12.84 373.68 12.28L373.56 12.28L373.26 13L371.89 13L371.89 3.88L373.68 3.88L373.68 6C373.68 6.27 373.66 6.71 373.61 7.3L373.68 7.3C374.1 6.65 374.72 6.33 375.54 6.33ZM374.97 7.76C374.52 7.76 374.2 7.89 374 8.17C373.79 8.44 373.69 8.88 373.68 9.51L373.68 9.7C373.68 10.4 373.78 10.91 373.99 11.21C374.2 11.52 374.53 11.67 374.99 11.67C375.36 11.67 375.65 11.5 375.86 11.17C376.08 10.83 376.19 10.33 376.19 9.69C376.19 9.04 376.08 8.56 375.86 8.24C375.64 7.92 375.34 7.76 374.97 7.76ZM381.27 13L379.49 13L379.49 3.88L381.27 3.88L381.27 13ZM383.08 4.76C383.08 4.17 383.4 3.88 384.05 3.88C384.7 3.88 385.02 4.17 385.02 4.76C385.02 5.03 384.94 5.25 384.78 5.41C384.62 5.56 384.38 5.63 384.05 5.63C383.4 5.63 383.08 5.34 383.08 4.76ZM384.94 13L383.16 13L383.16 6.45L384.94 6.45L384.94 13ZM391.39 11.05C391.39 11.73 391.16 12.24 390.69 12.59C390.23 12.94 389.53 13.12 388.6 13.12C388.12 13.12 387.72 13.08 387.38 13.02C387.04 12.96 386.73 12.86 386.44 12.74L386.44 11.26C386.77 11.42 387.14 11.55 387.56 11.65C387.98 11.76 388.34 11.81 388.66 11.81C389.31 11.81 389.63 11.62 389.63 11.25C389.63 11.11 389.59 10.99 389.5 10.91C389.42 10.82 389.27 10.72 389.06 10.61C388.85 10.5 388.56 10.37 388.21 10.22C387.71 10.01 387.34 9.81 387.1 9.63C386.87 9.45 386.69 9.25 386.58 9.02C386.48 8.78 386.43 8.49 386.43 8.15C386.43 7.57 386.65 7.12 387.1 6.81C387.55 6.49 388.19 6.33 389.02 6.33C389.81 6.33 390.58 6.5 391.32 6.84L390.78 8.13C390.46 7.99 390.15 7.88 389.87 7.79C389.58 7.7 389.29 7.65 388.99 7.65C388.47 7.65 388.2 7.79 388.2 8.08C388.2 8.24 388.28 8.38 388.45 8.49C388.63 8.61 389 8.79 389.57 9.02C390.08 9.22 390.46 9.42 390.7 9.6C390.94 9.78 391.11 9.98 391.23 10.22C391.34 10.45 391.39 10.73 391.39 11.05ZM395.55 11.69C395.86 11.69 396.24 11.63 396.67 11.49L396.67 12.82C396.23 13.02 395.68 13.12 395.03 13.12C394.32 13.12 393.8 12.94 393.47 12.58C393.14 12.21 392.98 11.67 392.98 10.95L392.98 7.79L392.13 7.79L392.13 7.04L393.11 6.44L393.63 5.05L394.77 5.05L394.77 6.45L396.6 6.45L396.6 7.79L394.77 7.79L394.77 10.95C394.77 11.2 394.84 11.39 394.98 11.51C395.13 11.63 395.31 11.69 395.55 11.69ZM400.97 13.12C399.91 13.12 399.09 12.83 398.5 12.24C397.9 11.66 397.61 10.84 397.61 9.77C397.61 8.67 397.88 7.83 398.43 7.23C398.98 6.63 399.74 6.33 400.71 6.33C401.63 6.33 402.35 6.59 402.87 7.12C403.38 7.64 403.64 8.37 403.64 9.3L403.64 10.17L399.42 10.17C399.44 10.68 399.59 11.07 399.87 11.36C400.15 11.64 400.54 11.79 401.05 11.79C401.45 11.79 401.82 11.75 402.17 11.66C402.52 11.58 402.89 11.45 403.27 11.27L403.27 12.65C402.96 12.81 402.63 12.93 402.27 13C401.91 13.08 401.48 13.12 400.97 13.12ZM400.72 7.6C400.34 7.6 400.04 7.72 399.83 7.96C399.61 8.2 399.49 8.54 399.46 8.98L401.97 8.98C401.96 8.54 401.84 8.2 401.62 7.96C401.4 7.72 401.1 7.6 400.72 7.6ZM408.75 6.33C408.99 6.33 409.19 6.34 409.35 6.38L409.22 8.05C409.07 8.02 408.9 8 408.69 8C408.12 8 407.68 8.14 407.36 8.44C407.04 8.73 406.88 9.14 406.88 9.67L406.88 13L405.09 13L405.09 6.45L406.45 6.45L406.71 7.55L406.8 7.55C407 7.18 407.27 6.89 407.62 6.67C407.97 6.44 408.34 6.33 408.75 6.33ZM410.29 12.16C410.29 11.83 410.38 11.59 410.55 11.42C410.73 11.25 410.99 11.17 411.32 11.17C411.65 11.17 411.9 11.25 412.07 11.42C412.25 11.6 412.34 11.84 412.34 12.16C412.34 12.47 412.25 12.71 412.07 12.89C411.89 13.07 411.64 13.16 411.32 13.16C410.99 13.16 410.74 13.07 410.56 12.9C410.38 12.72 410.29 12.48 410.29 12.16ZM416.63 13.12C414.59 13.12 413.57 12 413.57 9.76C413.57 8.65 413.84 7.8 414.4 7.21C414.95 6.62 415.75 6.33 416.78 6.33C417.54 6.33 418.22 6.47 418.82 6.77L418.29 8.15C418.01 8.04 417.75 7.95 417.51 7.88C417.27 7.8 417.02 7.77 416.78 7.77C415.85 7.77 415.39 8.43 415.39 9.75C415.39 11.03 415.85 11.67 416.78 11.67C417.13 11.67 417.45 11.63 417.74 11.54C418.03 11.44 418.32 11.3 418.62 11.1L418.62 12.63C418.33 12.81 418.03 12.94 417.74 13.01C417.45 13.08 417.07 13.12 416.63 13.12ZM426.09 9.71C426.09 10.78 425.81 11.61 425.25 12.21C424.69 12.82 423.9 13.12 422.9 13.12C422.27 13.12 421.72 12.98 421.24 12.71C420.76 12.43 420.39 12.03 420.13 11.52C419.87 11 419.74 10.4 419.74 9.71C419.74 8.64 420.02 7.81 420.58 7.22C421.14 6.62 421.92 6.33 422.94 6.33C423.56 6.33 424.12 6.46 424.6 6.74C425.08 7.01 425.45 7.4 425.71 7.91C425.97 8.43 426.09 9.03 426.09 9.71ZM421.56 9.71C421.56 10.36 421.67 10.85 421.88 11.18C422.1 11.52 422.44 11.68 422.92 11.68C423.4 11.68 423.74 11.52 423.95 11.19C424.16 10.86 424.27 10.37 424.27 9.71C424.27 9.06 424.16 8.58 423.95 8.25C423.74 7.93 423.39 7.77 422.91 7.77C422.44 7.77 422.09 7.93 421.88 8.25C421.67 8.57 421.56 9.06 421.56 9.71ZM433.44 13L431.65 13L431.65 9.17C431.65 8.7 431.57 8.35 431.41 8.11C431.25 7.88 431 7.76 430.66 7.76C430.21 7.76 429.88 7.92 429.67 8.26C429.46 8.6 429.36 9.15 429.36 9.92L429.36 13L427.57 13L427.57 6.45L428.94 6.45L429.18 7.29L429.27 7.29C429.45 6.99 429.71 6.75 430.04 6.58C430.37 6.41 430.75 6.33 431.18 6.33C432.16 6.33 432.82 6.65 433.17 7.29L433.33 7.29C433.51 6.98 433.76 6.75 434.1 6.58C434.45 6.41 434.83 6.33 435.26 6.33C436.01 6.33 436.57 6.52 436.95 6.9C437.33 7.28 437.52 7.89 437.52 8.73L437.52 13L435.73 13L435.73 9.17C435.73 8.7 435.65 8.35 435.49 8.11C435.33 7.88 435.08 7.76 434.74 7.76C434.3 7.76 433.98 7.91 433.76 8.22C433.54 8.54 433.44 9.03 433.44 9.71L433.44 13Z" />
</svg>