<svg width="158" height="158" viewBox="0 0 158 158" fill="none" xmlns="http://www.w3.org/2000/svg">
<g filter="url(#filter0_d)">
<path d="M150.341 69.0789C148.934 69.0789 143.587 71.0526 140.773 72.1805C140.492 71.0526 139.366 70.2068 137.959 70.2068C136.552 70.2068 135.144 71.0526 135.144 72.1805L129.797 71.3346C128.953 59.7744 124.45 49.6241 117.415 41.4474L120.51 36.9361C121.355 37.5 123.043 37.5 123.887 36.3722C125.013 35.2444 125.295 33.8346 124.45 32.9887C127.265 31.8609 132.612 29.6053 133.456 28.4774C134.582 27.0677 133.737 24.2481 131.767 21.9925C129.516 20.0188 126.702 19.1729 125.295 20.3008C124.169 21.1466 121.917 26.5038 120.792 29.3233C119.947 28.7594 118.259 29.0414 117.415 29.8872C116.289 31.015 116.008 32.4248 116.852 33.2707L112.349 36.3722C104.188 29.3233 93.7749 24.812 82.5178 23.9662L81.6736 18.609C82.7993 18.3271 83.6435 17.1992 83.6435 15.7895C83.6435 14.3797 82.7993 13.2519 81.6736 12.9699C82.7993 10.1504 84.7692 4.79323 84.7692 3.38346C84.4878 1.40977 81.955 0 78.8593 0C75.7636 0 73.2308 1.40977 72.9493 3.38346C72.9493 4.79323 74.9193 10.1504 76.045 12.9699C74.9193 13.2519 74.0751 14.3797 74.0751 15.7895C74.0751 17.1992 74.9193 18.609 76.045 18.609L75.2008 23.9662C63.6623 24.812 53.531 29.3233 45.3696 36.3722L40.8668 33.2707C41.4296 32.4248 41.4296 30.7331 40.3039 29.8872C39.1782 28.7594 37.7711 28.4774 36.9268 29.3233C35.8011 26.5038 33.5497 21.4286 32.424 20.3008C31.0169 19.1729 28.2026 20.0188 26.2326 22.2744C23.9812 24.2481 23.137 27.0677 24.2627 28.7594C25.1069 29.8872 30.454 32.1429 33.2683 33.2707C32.7054 34.1165 32.9869 35.8083 33.8311 36.6541C34.9569 37.782 36.364 38.0639 37.2083 37.2181L40.3039 41.7293C33.2683 49.906 28.7655 60.3383 27.9212 71.6165L22.5741 72.4624C22.2927 71.3346 21.167 70.4887 19.7599 70.4887C18.3527 70.4887 17.227 71.3346 16.9456 72.4624C14.1313 71.3346 8.78424 69.3609 7.37711 69.3609C5.40713 69.6429 4 72.1805 4 75.282C4 78.3835 5.40713 80.9211 7.37711 81.203C8.78424 81.203 14.1313 79.2293 16.9456 78.1015C17.227 79.2293 18.3527 80.0752 19.7599 80.0752C21.167 80.0752 22.5741 79.2293 22.5741 78.1015L27.9212 78.9474C28.7655 90.5075 33.2683 100.658 40.3039 108.835L37.4897 113.064C36.6454 112.5 34.9569 112.5 34.1126 113.628C32.9869 114.756 32.7054 116.165 33.5497 117.011C30.7355 118.139 25.6698 120.395 24.5441 121.523C23.4184 122.932 24.2627 125.752 26.2326 128.008C28.4841 130.263 31.2983 131.109 32.7054 129.699C33.8311 128.853 36.0826 123.496 37.2083 120.677C38.0525 121.241 39.7411 120.959 40.5854 120.113C41.7111 118.985 41.9925 117.575 41.1482 116.729L45.651 113.628C53.8124 120.677 64.2251 125.188 75.4822 126.034L76.3265 131.391C75.2008 131.673 74.3565 132.801 74.3565 134.211C74.3565 135.62 75.2008 136.748 76.3265 137.03C75.2008 139.85 73.2308 145.207 73.2308 146.617C73.5122 148.59 76.045 150 79.1407 150C82.2364 150 84.7692 148.59 85.0507 146.617C85.0507 145.207 83.0807 139.85 81.955 137.03C83.0807 136.748 83.925 135.62 83.925 134.211C83.925 132.801 83.0807 131.391 81.955 131.391L82.7993 126.034C94.3377 125.188 104.469 120.677 112.63 113.628L117.133 116.729C116.57 117.575 116.57 119.267 117.696 120.113C118.822 121.241 120.229 121.523 121.073 120.677C122.199 123.496 124.45 128.853 125.576 129.699C126.983 130.827 129.797 129.981 132.049 128.008C134.3 125.752 135.144 122.932 133.737 121.523C132.893 120.395 127.546 118.139 124.732 117.011C125.295 116.165 125.013 114.474 124.169 113.628C123.043 112.5 121.636 112.218 120.792 113.064L117.696 108.553C124.732 100.376 129.235 89.9436 130.079 78.6654L135.426 77.8196C135.707 78.9474 136.833 79.7932 138.24 79.7932C139.647 79.7932 140.773 78.9474 141.054 77.8196C143.869 78.9474 149.216 80.9211 150.623 80.9211C152.593 80.6391 154 78.1015 154 75C153.437 72.1805 152.03 69.3609 150.341 69.0789ZM34.9569 76.9737C33.8311 76.9737 32.9869 76.1278 32.9869 75C32.9869 73.8722 33.8311 73.0263 34.9569 73.0263C36.0826 73.0263 36.9268 73.8722 36.9268 75C36.9268 76.1278 36.0826 76.9737 34.9569 76.9737ZM108.409 42.5752C109.253 41.7293 110.379 41.7293 111.223 42.5752C112.068 43.4211 112.068 44.5489 111.223 45.3947C110.379 46.2406 109.253 46.2406 108.409 45.3947C107.846 44.5489 107.846 43.4211 108.409 42.5752ZM78.8593 29.3233C79.985 29.3233 80.8293 30.1692 80.8293 31.297C80.8293 32.4248 79.985 33.2707 78.8593 33.2707C77.7336 33.2707 76.8893 32.4248 76.8893 31.297C76.8893 30.1692 77.7336 29.3233 78.8593 29.3233ZM46.4953 42.5752C47.3396 41.7293 48.4653 41.7293 49.3096 42.5752C50.1539 43.4211 50.1539 44.5489 49.3096 45.3947C48.4653 46.2406 47.3396 46.2406 46.4953 45.3947C45.9325 44.5489 45.9325 43.4211 46.4953 42.5752ZM51.561 50.7519L53.8124 53.0075C54.3752 53.5714 54.9381 53.5714 55.5009 53.2895L58.5966 56.391C57.7523 58.3647 58.5966 61.4662 61.1295 64.0038C63.9437 66.8233 67.8837 67.6692 69.5722 65.9774C67.3208 68.2331 65.9137 71.3346 65.9137 74.718V73.8722H54.9381C54.6567 73.8722 54.3752 73.5902 54.3752 73.0263C54.3752 72.4624 54.6567 72.1805 54.9381 72.1805H66.4766V71.8985C66.4766 71.0526 65.6323 70.2068 64.788 70.2068H53.8124C53.2495 70.2068 51.8424 71.8985 50.9981 73.3083H47.621C47.3396 72.7444 46.7767 72.1805 46.2139 72.1805H42.5554C43.1182 64.2857 46.2139 56.6729 51.561 50.7519ZM49.3096 107.425C48.4653 108.271 47.3396 108.271 46.4953 107.425C45.651 106.579 45.651 105.451 46.4953 104.605C47.3396 103.759 48.4653 103.759 49.3096 104.605C50.1539 105.451 50.1539 106.579 49.3096 107.425ZM51.561 99.2481C46.2139 93.3271 42.8368 85.4323 42.2739 76.9737H45.9325C46.4953 76.9737 47.3396 76.4098 47.3396 75.8459H50.4353C51.2796 77.2556 52.6867 79.2293 53.2495 79.2293H64.2251C65.0694 79.2293 65.9137 78.6654 65.9137 77.8196V77.2556H54.9381C54.6567 77.2556 54.3752 76.9737 54.3752 76.4098C54.3752 75.8459 54.6567 75.5639 54.9381 75.5639H66.4766V74.718C66.4766 78.1015 67.8837 81.203 70.1351 83.4587C68.4465 81.7669 64.5066 82.6128 61.6923 85.4323C59.1595 87.9699 58.3152 91.0714 59.1595 93.0451L56.0638 96.1466C55.5009 95.8647 54.6567 95.8647 54.3752 96.4286L51.561 99.2481ZM78.8593 120.959C77.7336 120.959 76.8893 120.113 76.8893 118.985C76.8893 117.857 77.7336 117.011 78.8593 117.011C79.985 117.011 80.8293 117.857 80.8293 118.985C80.8293 120.113 79.985 120.959 78.8593 120.959ZM111.223 107.425C110.379 108.271 109.253 108.271 108.409 107.425C107.565 106.579 107.565 105.451 108.409 104.605C109.253 103.759 110.379 103.759 111.223 104.605C112.068 105.451 112.068 106.579 111.223 107.425ZM106.158 99.2481L103.906 96.9925C103.343 96.4286 102.78 96.4286 102.218 96.7105L99.122 93.609C99.9662 91.6353 99.1219 88.5338 96.5891 85.9962C93.7749 83.1767 89.8349 82.3308 88.1463 84.0226C86.4578 85.7143 87.3021 89.6617 90.1163 92.4812C92.6492 95.0188 95.7448 95.8647 97.7148 95.0188L100.811 98.1203C100.529 98.6842 100.529 99.5301 101.092 99.812L103.343 102.068C97.4334 107.425 89.8349 110.808 81.3921 111.372V107.707C81.3921 107.143 80.8293 106.297 80.2664 106.297V102.914C81.3921 102.068 83.3621 100.658 83.3621 100.094V89.0978C83.3621 88.2519 82.5178 87.406 81.6736 87.406H81.3921V98.9662C81.3921 99.2481 81.1107 99.5301 80.5479 99.5301C79.985 99.5301 79.7036 99.2481 79.7036 98.9662V87.688H78.8593H78.015V98.9662C78.015 99.2481 77.7336 99.5301 77.1707 99.5301C76.6079 99.5301 76.3265 99.2481 76.3265 98.9662V87.688H75.7636C74.9193 87.688 74.3565 88.5338 74.3565 89.3797V100.376C74.3565 100.94 76.3265 102.35 77.7336 103.195V106.297C77.1707 106.579 76.6079 107.143 76.6079 107.707V111.372C68.1651 110.808 60.2852 107.425 54.3752 102.068L56.6266 99.812C57.1895 99.2481 57.1895 98.6842 56.9081 98.1203L60.0038 95.0188C61.9737 95.8647 65.0694 95.0188 67.6023 92.4812C70.4165 89.6617 71.2608 85.7143 69.5722 84.0226C71.8236 86.2782 74.9193 87.688 78.2964 87.688C85.3321 87.688 90.6792 82.0489 90.6792 75.282C90.6792 68.2331 85.0507 62.8759 78.2964 62.8759C74.9193 62.8759 71.8236 64.2857 69.5722 66.5414C71.2608 64.8496 70.4165 60.9023 67.6023 58.0827C65.0694 55.5451 61.9737 54.6993 60.0038 55.5451L56.9081 52.4436C57.1895 51.8797 57.1895 51.0338 56.6266 50.7519L54.3752 48.4962C60.2852 43.1391 68.1651 39.7556 76.6079 39.1917V42.8571C76.6079 43.4211 77.1707 44.2669 77.7336 44.2669V47.3684C76.3265 48.2143 74.3565 49.6241 74.3565 50.188V61.1842C74.3565 62.0301 74.9193 62.8759 75.7636 62.8759H76.3265V51.0338C76.3265 50.7519 76.6079 50.4699 77.1707 50.4699C77.7336 50.4699 78.015 50.7519 78.015 51.0338V62.594H78.8593H79.7036V51.0338C79.7036 50.7519 79.985 50.4699 80.5479 50.4699C81.1107 50.4699 81.3921 50.7519 81.3921 51.0338V62.594H81.6736C82.5178 62.594 83.3621 61.7481 83.3621 60.9023V49.906C83.3621 49.3421 81.6736 47.9323 80.2664 47.0865V43.703C80.8293 43.4211 81.3921 42.8571 81.3921 42.2932V38.6278C89.8349 39.1917 97.4334 42.5752 103.343 47.6504L101.092 49.906C100.529 50.4699 100.529 51.0338 100.811 51.5978L97.7148 54.6992C95.7448 53.8534 92.6492 54.6993 90.1163 57.2369C87.3021 60.0564 86.4578 64.0038 88.1463 65.6955C89.8349 67.3872 93.7749 66.5414 96.5891 63.7218C99.1219 61.1842 99.9662 58.0827 99.122 56.109L102.218 53.0075C102.78 53.2895 103.625 53.2895 103.906 52.7256L106.158 50.4699C111.505 56.391 114.882 64.0038 115.445 72.4624H111.786C111.223 72.4624 110.379 73.0263 110.379 73.5902H107.002C106.158 72.4624 104.75 70.4887 104.188 70.4887H93.212C92.3677 70.4887 91.5235 71.3346 91.5235 72.1805V72.4624H102.78C103.062 72.4624 103.343 72.7444 103.343 73.3083C103.343 73.8722 103.062 74.1541 102.78 74.1541H91.5235V75.5639H102.78C103.062 75.5639 103.343 75.8459 103.343 76.4098C103.343 76.9737 103.062 77.2556 102.78 77.2556H91.5235V77.8196C91.5235 78.6654 92.3677 79.2293 93.212 79.2293H104.188C104.75 79.2293 106.158 77.2556 107.002 75.8459H110.098C110.379 76.4098 110.942 76.9737 111.505 76.9737H115.163C114.882 85.7143 111.505 93.3271 106.158 99.2481ZM70.9794 75C70.9794 70.7707 74.3565 67.1053 78.8593 67.1053C83.0807 67.1053 86.7392 70.4887 86.7392 75C86.7392 79.2293 83.3621 82.8947 78.8593 82.8947C74.6379 82.8947 70.9794 79.5113 70.9794 75ZM122.762 76.9737C121.636 76.9737 120.792 76.1278 120.792 75C120.792 73.8722 121.636 73.0263 122.762 73.0263C123.887 73.0263 124.732 73.8722 124.732 75C124.732 76.1278 123.887 76.9737 122.762 76.9737Z" fill="#FFD600"/>
</g>
<defs>
<filter id="filter0_d" x="0" y="0" width="158" height="158" filterUnits="userSpaceOnUse" color-interpolation-filters="sRGB">
<feFlood flood-opacity="0" result="BackgroundImageFix"/>
<feColorMatrix in="SourceAlpha" type="matrix" values="0 0 0 0 0 0 0 0 0 0 0 0 0 0 0 0 0 0 127 0"/>
<feOffset dy="4"/>
<feGaussianBlur stdDeviation="2"/>
<feColorMatrix type="matrix" values="0 0 0 0 0 0 0 0 0 0 0 0 0 0 0 0 0 0 0.25 0"/>
<feBlend mode="normal" in2="BackgroundImageFix" result="effect1_dropShadow"/>
<feBlend mode="normal" in="SourceGraphic" in2="effect1_dropShadow" result="shape"/>
</filter>
</defs>
</svg>
